<?xml version="1.0" encoding="UTF-8" standalone="no"?>
<!-- Created with Inkscape (http://www.inkscape.org/) -->

<svg
   xmlns:dc="http://purl.org/dc/elements/1.1/"
   xmlns:cc="http://creativecommons.org/ns#"
   xmlns:rdf="http://www.w3.org/1999/02/22-rdf-syntax-ns#"
   xmlns:svg="http://www.w3.org/2000/svg"
   xmlns="http://www.w3.org/2000/svg"
   xmlns:sodipodi="http://sodipodi.sourceforge.net/DTD/sodipodi-0.dtd"
   xmlns:inkscape="http://www.inkscape.org/namespaces/inkscape"
   width="600"
   height="600"
   viewBox="0 0 600.00005 600.00002"
   id="svg2"
   version="1.1"
   inkscape:version="0.91 r13725"
   sodipodi:docname="linear-stream.svg">
  <defs
     id="defs4">
    <inkscape:path-effect
       effect="powerstroke"
       id="path-effect6167"
       is_visible="true"
       offset_points="0,0.5"
       sort_points="true"
       interpolator_type="CubicBezierJohan"
       interpolator_beta="0.2"
       start_linecap_type="zerowidth"
       linejoin_type="round"
       miter_limit="4"
       end_linecap_type="zerowidth"
       cusp_linecap_type="round" />
    <marker
       inkscape:stockid="Arrow1Lstart"
       orient="auto"
       refY="0.0"
       refX="0.0"
       id="Arrow1Lstart"
       style="overflow:visible"
       inkscape:isstock="true">
      <path
         id="path5586"
         d="M 0.0,0.0 L 5.0,-5.0 L -12.5,0.0 L 5.0,5.0 L 0.0,0.0 z "
         style="fill-rule:evenodd;stroke:#ffffff;stroke-width:1pt;stroke-opacity:1;fill:#ffffff;fill-opacity:1"
         transform="scale(0.8) translate(12.5,0)" />
    </marker>
  </defs>
  <sodipodi:namedview
     id="base"
     pagecolor="#ffffff"
     bordercolor="#666666"
     borderopacity="1.0"
     inkscape:pageopacity="0.0"
     inkscape:pageshadow="2"
     inkscape:zoom="0.5"
     inkscape:cx="-170.56814"
     inkscape:cy="193.0165"
     inkscape:document-units="px"
     inkscape:current-layer="g6155"
     showgrid="false"
     units="px"
     showguides="true"
     inkscape:guide-bbox="true"
     inkscape:window-width="1440"
     inkscape:window-height="856"
     inkscape:window-x="-1"
     inkscape:window-y="0"
     inkscape:window-maximized="0">
    <sodipodi:guide
       position="0,362.00001"
       orientation="1,0"
       id="guide4136" />
    <sodipodi:guide
       position="96.000008,600.00002"
       orientation="0,1"
       id="guide4138" />
    <sodipodi:guide
       position="600.00005,224.00001"
       orientation="1,0"
       id="guide4140" />
    <sodipodi:guide
       position="574.00005,1"
       orientation="0,1"
       id="guide4142" />
    <sodipodi:guide
       position="316.00003,300.00001"
       orientation="0,1"
       id="guide4144" />
    <sodipodi:guide
       position="300.00002,201.00001"
       orientation="1,0"
       id="guide4146" />
  </sodipodi:namedview>
  <metadata
     id="metadata7">
    <rdf:RDF>
      <cc:Work
         rdf:about="">
        <dc:format>image/svg+xml</dc:format>
        <dc:type
           rdf:resource="http://purl.org/dc/dcmitype/StillImage" />
        <dc:title></dc:title>
      </cc:Work>
    </rdf:RDF>
  </metadata>
  <g
     inkscape:label="Layer 1"
     inkscape:groupmode="layer"
     id="layer1"
     transform="translate(0,-452.36201)"
     style="display:none"
     sodipodi:insensitive="true">
    <ellipse
       style="opacity:1;fill:none;fill-opacity:1;stroke:#ff8c00;stroke-width:30.20134544;stroke-miterlimit:4;stroke-dasharray:none;stroke-dashoffset:0;stroke-opacity:1"
       id="path4321"
       cx="300.00003"
       cy="752.362"
       rx="284.89938"
       ry="284.89935" />
    <circle
       style="opacity:1;fill:#ff8c00;fill-opacity:1;stroke:none;stroke-width:30;stroke-miterlimit:4;stroke-dasharray:none;stroke-dashoffset:0;stroke-opacity:1"
       id="path4325"
       cx="300.00003"
       cy="752.362"
       r="240.00003" />
    <path
       style="fill:none;fill-rule:evenodd;stroke:#ffffff;stroke-width:30.00000381;stroke-linecap:butt;stroke-linejoin:round;stroke-miterlimit:0;stroke-dasharray:60.00000715, 30.00000358;stroke-dashoffset:99.00001526;stroke-opacity:1"
       d="m 58.585778,816.56298 c 0,0 77.071072,-212.05888 184.698492,-154.49033 74.95677,40.09343 -30.15521,165.31914 61.67409,215.73298 74.10388,40.68267 127.55636,-114.12994 127.55636,-114.12994"
       id="path5552"
       inkscape:connector-curvature="0"
       sodipodi:nodetypes="cssc" />
    <circle
       style="opacity:1;fill:#ffffff;fill-opacity:1;stroke:none;stroke-width:30;stroke-miterlimit:4;stroke-dasharray:30, 30;stroke-dashoffset:0;stroke-opacity:1"
       id="path5557"
       cx="439.22244"
       cy="752.362"
       r="65.000008" />
  </g>
  <g
     style="display:inline"
     transform="translate(0,-452.36201)"
     id="g6155"
     inkscape:groupmode="layer"
     inkscape:label="Layer 1 copy">
    <ellipse
       ry="284.89935"
       rx="284.89938"
       cy="752.362"
       cx="300.00003"
       id="ellipse6157"
       style="opacity:1;fill:none;fill-opacity:1;stroke:#ff1493;stroke-width:30.20134544;stroke-miterlimit:4;stroke-dasharray:none;stroke-dashoffset:0;stroke-opacity:1" />
    <path
       style="opacity:1;fill:#ff1493;fill-opacity:1;stroke:none;stroke-width:30;stroke-miterlimit:4;stroke-dasharray:none;stroke-dashoffset:0;stroke-opacity:1"
       d="M 300 60 A 239.99997 239.99997 0 0 0 60.75 285 L 86 285 L 86 315 L 60.53125 315 A 239.99997 239.99997 0 0 0 300 540 A 239.99997 239.99997 0 0 0 540 300 A 239.99997 239.99997 0 0 0 300 60 z M 439.22266 235 A 65 65 0 0 1 504.22266 300 A 65 65 0 0 1 439.22266 365 A 65 65 0 0 1 374.22266 300 A 65 65 0 0 1 439.22266 235 z M 116 285 L 176 285 L 176 315 L 116 315 L 116 285 z M 206 285 L 266 285 L 266 315 L 206 315 L 206 285 z M 296 285 L 356 285 L 356 315 L 296 315 L 296 285 z "
       transform="translate(0,452.36198)"
       id="circle6159" />
  </g>
</svg>
