<?xml version="1.0" encoding="UTF-8" standalone="no"?>
<!-- Created with Inkscape (http://www.inkscape.org/) -->

<svg
   xmlns:dc="http://purl.org/dc/elements/1.1/"
   xmlns:cc="http://creativecommons.org/ns#"
   xmlns:rdf="http://www.w3.org/1999/02/22-rdf-syntax-ns#"
   xmlns:svg="http://www.w3.org/2000/svg"
   xmlns="http://www.w3.org/2000/svg"
   xmlns:sodipodi="http://sodipodi.sourceforge.net/DTD/sodipodi-0.dtd"
   xmlns:inkscape="http://www.inkscape.org/namespaces/inkscape"
   width="600"
   height="600"
   viewBox="0 0 600.00005 600.00002"
   id="svg2"
   version="1.1"
   inkscape:version="0.91 r13725"
   sodipodi:docname="midi.svg">
  <defs
     id="defs4">
    <inkscape:path-effect
       effect="powerstroke"
       id="path-effect6167"
       is_visible="true"
       offset_points="0,0.5"
       sort_points="true"
       interpolator_type="CubicBezierJohan"
       interpolator_beta="0.2"
       start_linecap_type="zerowidth"
       linejoin_type="round"
       miter_limit="4"
       end_linecap_type="zerowidth"
       cusp_linecap_type="round" />
    <marker
       inkscape:stockid="Arrow1Lstart"
       orient="auto"
       refY="0.0"
       refX="0.0"
       id="Arrow1Lstart"
       style="overflow:visible"
       inkscape:isstock="true">
      <path
         id="path5586"
         d="M 0.0,0.0 L 5.0,-5.0 L -12.5,0.0 L 5.0,5.0 L 0.0,0.0 z "
         style="fill-rule:evenodd;stroke:#ffffff;stroke-width:1pt;stroke-opacity:1;fill:#ffffff;fill-opacity:1"
         transform="scale(0.8) translate(12.5,0)" />
    </marker>
  </defs>
  <sodipodi:namedview
     id="base"
     pagecolor="#ffffff"
     bordercolor="#666666"
     borderopacity="1.0"
     inkscape:pageopacity="0.0"
     inkscape:pageshadow="2"
     inkscape:zoom="0.70710678"
     inkscape:cx="104.29319"
     inkscape:cy="250.31026"
     inkscape:document-units="px"
     inkscape:current-layer="g4176"
     showgrid="false"
     units="px"
     showguides="false"
     inkscape:guide-bbox="true"
     inkscape:window-width="1440"
     inkscape:window-height="856"
     inkscape:window-x="-1"
     inkscape:window-y="0"
     inkscape:window-maximized="0">
    <sodipodi:guide
       position="0,362.00001"
       orientation="1,0"
       id="guide4136" />
    <sodipodi:guide
       position="96.000008,600.00002"
       orientation="0,1"
       id="guide4138" />
    <sodipodi:guide
       position="600.00005,224.00001"
       orientation="1,0"
       id="guide4140" />
    <sodipodi:guide
       position="574.00005,1"
       orientation="0,1"
       id="guide4142" />
    <sodipodi:guide
       position="316.00003,300.00001"
       orientation="0,1"
       id="guide4144" />
    <sodipodi:guide
       position="300.00002,201.00001"
       orientation="1,0"
       id="guide4146" />
  </sodipodi:namedview>
  <metadata
     id="metadata7">
    <rdf:RDF>
      <cc:Work
         rdf:about="">
        <dc:format>image/svg+xml</dc:format>
        <dc:type
           rdf:resource="http://purl.org/dc/dcmitype/StillImage" />
        <dc:title></dc:title>
      </cc:Work>
    </rdf:RDF>
  </metadata>
  <g
     inkscape:label="Layer 1"
     inkscape:groupmode="layer"
     id="layer1"
     transform="translate(0,-452.36201)"
     style="display:none"
     sodipodi:insensitive="true">
    <ellipse
       style="opacity:1;fill:none;fill-opacity:1;stroke:#ff8c00;stroke-width:30.20134544;stroke-miterlimit:4;stroke-dasharray:none;stroke-dashoffset:0;stroke-opacity:1"
       id="path4321"
       cx="300.00003"
       cy="752.362"
       rx="284.89938"
       ry="284.89935" />
    <circle
       style="opacity:1;fill:#ff8c00;fill-opacity:1;stroke:none;stroke-width:30;stroke-miterlimit:4;stroke-dasharray:none;stroke-dashoffset:0;stroke-opacity:1"
       id="path4325"
       cx="300.00003"
       cy="752.362"
       r="240.00003" />
    <path
       style="fill:none;fill-rule:evenodd;stroke:#ffffff;stroke-width:30.00000381;stroke-linecap:butt;stroke-linejoin:round;stroke-miterlimit:0;stroke-dasharray:60.00000715, 30.00000358;stroke-dashoffset:99.00001526;stroke-opacity:1"
       d="m 58.585778,816.56298 c 0,0 77.071072,-212.05888 184.698492,-154.49033 74.95677,40.09343 -30.15521,165.31914 61.67409,215.73298 74.10388,40.68267 127.55636,-114.12994 127.55636,-114.12994"
       id="path5552"
       inkscape:connector-curvature="0"
       sodipodi:nodetypes="cssc" />
    <circle
       style="opacity:1;fill:#ffffff;fill-opacity:1;stroke:none;stroke-width:30;stroke-miterlimit:4;stroke-dasharray:30, 30;stroke-dashoffset:0;stroke-opacity:1"
       id="path5557"
       cx="439.22244"
       cy="752.362"
       r="65.000008" />
  </g>
  <g
     style="display:inline"
     transform="translate(0,-452.36201)"
     id="g4176"
     inkscape:groupmode="layer"
     inkscape:label="Layer 1 copy">
    <ellipse
       ry="284.89935"
       rx="284.89938"
       cy="752.362"
       cx="300.00003"
       id="ellipse4178"
       style="opacity:1;fill:none;fill-opacity:1;stroke:#32cd32;stroke-width:30.20134544;stroke-miterlimit:4;stroke-dasharray:none;stroke-dashoffset:0;stroke-opacity:1" />
    <path
       style="opacity:1;fill:#32cd32;fill-opacity:1;stroke:none;stroke-width:30;stroke-miterlimit:4;stroke-dasharray:none;stroke-dashoffset:0;stroke-opacity:1"
       d="M 242.5 67.242188 A 239.99985 239.99985 0 0 0 60 300 A 239.99985 239.99985 0 0 0 300 540 A 239.99985 239.99985 0 0 0 540 300 A 239.99985 239.99985 0 0 0 357.5 67.291016 L 357.5 113.57617 C 357.5 116.02656 355.52656 118 353.07617 118 L 246.92383 118 C 244.47344 118 242.5 116.02656 242.5 113.57617 L 242.5 67.242188 z M 194.08984 300.22266 C 195.12616 300.29514 196.10737 300.8669 196.66797 301.83789 L 205.875 317.7832 C 206.77196 319.33679 206.24302 321.31008 204.68945 322.20703 L 178.74414 337.1875 A 29.283788 29.283788 0 0 1 164.24023 365.00391 A 29.283788 29.283788 0 0 1 132.89648 363.6582 L 106.95508 378.63477 C 105.4015 379.53173 103.42821 379.00281 102.53125 377.44922 L 93.324219 361.50195 C 92.427256 359.94837 92.956188 357.97508 94.509766 357.07812 L 120.45312 342.09961 A 29.283788 29.283788 0 0 1 134.95703 314.2832 A 29.283788 29.283788 0 0 1 166.30273 315.62891 L 192.24414 300.65234 C 192.82673 300.31598 193.46805 300.17916 194.08984 300.22266 z M 405.91016 300.22266 C 406.53195 300.17916 407.17327 300.31598 407.75586 300.65234 L 433.70117 315.63086 A 29.2838 29.2838 0 0 1 465.04297 314.2832 A 29.2838 29.2838 0 0 1 479.54883 342.10156 L 505.49023 357.07812 C 507.04381 357.97508 507.57274 359.94837 506.67578 361.50195 L 497.46875 377.44922 C 496.57179 379.00281 494.5985 379.53173 493.04492 378.63477 L 467.09961 363.65625 A 29.2838 29.2838 0 0 1 435.75977 365.00391 A 29.2838 29.2838 0 0 1 421.25195 337.18555 L 395.31055 322.20703 C 393.75698 321.31008 393.22804 319.33679 394.125 317.7832 L 403.33203 301.83789 C 403.89263 300.8669 404.87384 300.29514 405.91016 300.22266 z M 230.86914 358.19727 C 231.49093 358.15377 232.1342 358.28864 232.7168 358.625 L 248.66211 367.83203 C 250.2157 368.72899 250.74462 370.70228 249.84766 372.25586 L 234.86914 398.20117 A 29.283791 29.283791 0 0 1 236.2168 429.54297 A 29.283791 29.283791 0 0 1 208.39844 444.04883 L 193.42188 469.99023 C 192.52492 471.54381 190.55164 472.07274 188.99805 471.17578 L 173.05078 461.96875 C 171.4972 461.07179 170.96827 459.0985 171.86523 457.54492 L 186.84375 431.59961 A 29.283791 29.283791 0 0 1 185.49609 400.25977 A 29.283791 29.283791 0 0 1 213.31445 385.75195 L 228.29102 359.81055 C 228.85161 358.83956 229.83282 358.26975 230.86914 358.19727 z M 369.13086 358.19727 C 370.16718 358.26975 371.14644 358.83956 371.70703 359.81055 L 386.6875 385.75586 A 29.283797 29.283797 0 0 1 414.50391 400.25977 A 29.283797 29.283797 0 0 1 413.1582 431.60352 L 428.13477 457.54492 C 429.03173 459.0985 428.50281 461.07179 426.94922 461.96875 L 411.00195 471.17578 C 409.44836 472.07274 407.47507 471.54381 406.57812 469.99023 L 391.59961 444.04492 A 29.283797 29.283797 0 0 1 363.7832 429.54297 A 29.283797 29.283797 0 0 1 365.12891 398.19727 L 350.15234 372.25586 C 349.25538 370.70228 349.78429 368.72899 351.33789 367.83203 L 367.2832 358.625 C 367.8658 358.28864 368.50907 358.15377 369.13086 358.19727 z M 290.79297 389.12109 L 309.20703 389.12109 C 311.00095 389.12109 312.44531 390.56547 312.44531 392.35938 L 312.44531 422.31836 A 29.283794 29.283794 0 0 1 329.2832 448.78711 A 29.283794 29.283794 0 0 1 312.44531 475.25977 L 312.44531 505.21289 C 312.44531 507.00681 311.00095 508.45312 309.20703 508.45312 L 290.79297 508.45312 C 288.99904 508.45312 287.55469 507.00681 287.55469 505.21289 L 287.55469 475.25586 A 29.283794 29.283794 0 0 1 270.7168 448.78711 A 29.283794 29.283794 0 0 1 287.55469 422.31445 L 287.55469 392.35938 C 287.55469 390.56547 288.99904 389.12109 290.79297 389.12109 z "
       transform="translate(0,452.36198)"
       id="circle4180" />
  </g>
</svg>
