<?xml version="1.0" encoding="UTF-8" standalone="no"?>
<!-- Created with Inkscape (http://www.inkscape.org/) -->

<svg
   xmlns:dc="http://purl.org/dc/elements/1.1/"
   xmlns:cc="http://creativecommons.org/ns#"
   xmlns:rdf="http://www.w3.org/1999/02/22-rdf-syntax-ns#"
   xmlns:svg="http://www.w3.org/2000/svg"
   xmlns="http://www.w3.org/2000/svg"
   xmlns:sodipodi="http://sodipodi.sourceforge.net/DTD/sodipodi-0.dtd"
   xmlns:inkscape="http://www.inkscape.org/namespaces/inkscape"
   width="600"
   height="600"
   viewBox="0 0 600.00005 600.00002"
   id="svg2"
   version="1.1"
   inkscape:version="0.91 r13725"
   sodipodi:docname="stream.svg">
  <defs
     id="defs4">
    <marker
       inkscape:stockid="Arrow1Lstart"
       orient="auto"
       refY="0.0"
       refX="0.0"
       id="Arrow1Lstart"
       style="overflow:visible"
       inkscape:isstock="true">
      <path
         id="path5586"
         d="M 0.0,0.0 L 5.0,-5.0 L -12.5,0.0 L 5.0,5.0 L 0.0,0.0 z "
         style="fill-rule:evenodd;stroke:#ffffff;stroke-width:1pt;stroke-opacity:1;fill:#ffffff;fill-opacity:1"
         transform="scale(0.8) translate(12.5,0)" />
    </marker>
  </defs>
  <sodipodi:namedview
     id="base"
     pagecolor="#ffffff"
     bordercolor="#666666"
     borderopacity="1.0"
     inkscape:pageopacity="0.0"
     inkscape:pageshadow="2"
     inkscape:zoom="0.70710678"
     inkscape:cx="6.2619629"
     inkscape:cy="220.57879"
     inkscape:document-units="px"
     inkscape:current-layer="g6001"
     showgrid="false"
     units="px"
     showguides="true"
     inkscape:guide-bbox="true"
     inkscape:window-width="1920"
     inkscape:window-height="1036"
     inkscape:window-x="0"
     inkscape:window-y="0"
     inkscape:window-maximized="1">
    <sodipodi:guide
       position="0,362.00001"
       orientation="1,0"
       id="guide4136" />
    <sodipodi:guide
       position="96.000008,600.00002"
       orientation="0,1"
       id="guide4138" />
    <sodipodi:guide
       position="600.00005,224.00001"
       orientation="1,0"
       id="guide4140" />
    <sodipodi:guide
       position="574.00005,1"
       orientation="0,1"
       id="guide4142" />
    <sodipodi:guide
       position="316.00003,300.00001"
       orientation="0,1"
       id="guide4144" />
    <sodipodi:guide
       position="300.00002,201.00001"
       orientation="1,0"
       id="guide4146" />
  </sodipodi:namedview>
  <metadata
     id="metadata7">
    <rdf:RDF>
      <cc:Work
         rdf:about="">
        <dc:format>image/svg+xml</dc:format>
        <dc:type
           rdf:resource="http://purl.org/dc/dcmitype/StillImage" />
        <dc:title></dc:title>
      </cc:Work>
    </rdf:RDF>
  </metadata>
  <g
     inkscape:label="Layer 1"
     inkscape:groupmode="layer"
     id="layer1"
     transform="translate(0,-452.36201)"
     style="display:none"
     sodipodi:insensitive="true">
    <ellipse
       style="opacity:1;fill:none;fill-opacity:1;stroke:#ff8c00;stroke-width:30.20134544;stroke-miterlimit:4;stroke-dasharray:none;stroke-dashoffset:0;stroke-opacity:1"
       id="path4321"
       cx="300.00003"
       cy="752.362"
       rx="284.89938"
       ry="284.89935" />
    <circle
       style="opacity:1;fill:#ff8c00;fill-opacity:1;stroke:none;stroke-width:30;stroke-miterlimit:4;stroke-dasharray:none;stroke-dashoffset:0;stroke-opacity:1"
       id="path4325"
       cx="300.00003"
       cy="752.362"
       r="240.00003" />
    <path
       style="fill:none;fill-rule:evenodd;stroke:#ffffff;stroke-width:30.00000381;stroke-linecap:butt;stroke-linejoin:round;stroke-miterlimit:0;stroke-dasharray:60.00000715, 30.00000358;stroke-dashoffset:99.00001526;stroke-opacity:1"
       d="m 58.585778,816.56298 c 0,0 77.071072,-212.05888 184.698492,-154.49033 74.95677,40.09343 -30.15521,165.31914 61.67409,215.73298 74.10388,40.68267 127.55636,-114.12994 127.55636,-114.12994"
       id="path5552"
       inkscape:connector-curvature="0"
       sodipodi:nodetypes="cssc" />
    <circle
       style="opacity:1;fill:#ffffff;fill-opacity:1;stroke:none;stroke-width:30;stroke-miterlimit:4;stroke-dasharray:30, 30;stroke-dashoffset:0;stroke-opacity:1"
       id="path5557"
       cx="439.22244"
       cy="752.362"
       r="65.000008" />
  </g>
  <g
     style="display:inline"
     transform="translate(0,-452.36201)"
     id="g6001"
     inkscape:groupmode="layer"
     inkscape:label="Layer 1 copy">
    <ellipse
       ry="284.89935"
       rx="284.89938"
       cy="752.362"
       cx="300.00003"
       id="ellipse6003"
       style="opacity:1;fill:none;fill-opacity:1;stroke:#ff1493;stroke-width:30.20134544;stroke-miterlimit:4;stroke-dasharray:none;stroke-dashoffset:0;stroke-opacity:1" />
    <path
       style="opacity:1;fill:#ff1493;fill-opacity:1;stroke:none;stroke-width:30;stroke-miterlimit:4;stroke-dasharray:none;stroke-dashoffset:0;stroke-opacity:1"
       d="M 300 60 A 239.99997 239.99997 0 0 0 61.072266 278.58203 L 61.271484 278.34961 L 61.373047 278.23047 L 64.501953 274.6543 L 64.609375 274.53125 L 67.839844 270.91992 L 67.953125 270.79297 L 71.28125 267.15625 L 71.402344 267.02539 L 74.824219 263.37109 L 74.953125 263.23633 L 77.748047 260.32422 L 99.382812 281.10742 L 96.621094 283.98242 L 96.587891 284.01953 L 93.416016 287.40234 L 93.353516 287.47266 L 93.294922 287.53516 L 90.089844 291.04102 L 86.974609 294.52734 L 83.953125 297.98242 L 81.171875 301.22852 L 81.130859 301.2793 L 75.529297 308.01562 L 70.330078 314.50781 L 70.324219 314.51562 L 65.708984 320.48242 L 65.65625 320.55078 L 61.917969 325.54492 L 61.613281 325.31641 A 239.99997 239.99997 0 0 0 300 540 A 239.99997 239.99997 0 0 0 540 300 A 239.99997 239.99997 0 0 0 300 60 z M 209.26172 189.06445 L 211.76367 189.07031 L 212.16406 189.07617 L 214.66992 189.14648 L 215.07422 189.16406 L 217.58398 189.30469 L 217.99414 189.33203 L 220.50781 189.54102 L 220.91992 189.58203 L 223.43555 189.86133 L 223.85156 189.91211 L 226.36914 190.26367 L 226.78711 190.32812 L 229.30859 190.75195 L 229.72461 190.82812 L 232.24805 191.32812 L 232.66602 191.41602 L 235.18945 191.99023 L 235.60547 192.08984 L 238.13086 192.74023 L 238.54297 192.85352 L 241.07031 193.58203 L 241.48047 193.70508 L 244.00586 194.51172 L 244.41211 194.64844 L 246.93945 195.53516 L 247.33789 195.68164 L 249.86523 196.65039 L 250.25781 196.80664 L 252.60938 197.78516 L 241.08789 225.48438 L 238.9707 224.60352 L 236.80859 223.77344 L 234.63477 223.01172 L 232.57227 222.35352 L 230.45312 221.74219 L 228.35547 221.20117 L 226.19336 220.71094 L 224.12305 220.30078 L 222.02148 219.94727 L 219.9375 219.65625 L 217.77344 219.41602 L 215.74023 219.24805 L 213.62891 219.12891 L 211.5 219.07031 L 209.41992 219.06445 L 207.32812 219.11523 L 205.21484 219.22266 L 203.07617 219.38477 L 200.91016 219.60352 L 198.86133 219.86328 L 196.72656 220.18359 L 194.56836 220.56055 L 192.52539 220.9668 L 191.32617 221.23242 L 184.82617 191.94531 L 186.15039 191.65039 L 186.48047 191.58203 L 188.93945 191.09375 L 189.2793 191.03125 L 191.74414 190.59961 L 192.0918 190.54297 L 194.5625 190.17188 L 194.91992 190.12305 L 197.39648 189.81055 L 197.76172 189.76953 L 200.24414 189.51758 L 200.61914 189.48438 L 203.10547 189.29492 L 203.48828 189.27148 L 205.98047 189.14453 L 206.36914 189.13086 L 208.86719 189.07031 L 209.26172 189.06445 z M 153.24023 203.05859 L 166.4375 230 L 162.64844 231.85742 L 158.44336 234.08008 L 154.25 236.45703 L 150.10352 238.96094 L 145.91211 241.64453 L 141.79297 244.42578 L 137.66016 247.36133 L 133.71094 250.29688 L 129.72852 253.38867 L 125.80859 256.55664 L 121.9082 259.83398 L 120.14648 261.36523 L 100.44922 238.73828 L 102.30859 237.11914 L 102.51172 236.94727 L 106.5957 233.51562 L 106.8125 233.33789 L 110.9668 229.97852 L 111.19922 229.79492 L 115.42383 226.51562 L 115.67188 226.32617 L 119.96094 223.13867 L 120.22852 222.94336 L 124.58008 219.85547 L 124.86719 219.65625 L 129.2793 216.67578 L 129.58789 216.47266 L 134.05664 213.61328 L 134.38867 213.40625 L 138.91406 210.67383 L 139.26953 210.46484 L 143.8457 207.87109 L 144.23047 207.66016 L 148.85547 205.21484 L 149.26953 205.00391 L 153.24023 203.05859 z M 283 219.66602 L 283.85352 220.7832 L 284.17969 221.22852 L 285.0957 222.52148 L 285.4043 222.97461 L 286.26367 224.29102 L 286.55469 224.75195 L 287.36133 226.0918 L 287.63086 226.55859 L 288.38672 227.91992 L 288.63672 228.38867 L 289.3418 229.77148 L 289.57031 230.24023 L 290.22656 231.64648 L 290.43359 232.11133 L 291.04102 233.53711 L 291.22852 234 L 291.78906 235.44531 L 291.95703 235.90039 L 292.4707 237.36914 L 292.6875 238.0332 L 293.58203 241.02734 L 293.80859 241.87695 L 294.5332 244.94531 L 294.69922 245.74609 L 295.26172 248.88672 L 295.37695 249.62891 L 295.78711 252.83984 L 295.85938 253.52148 L 296.125 256.79688 L 296.16406 257.41797 L 296.29688 260.75586 L 296.30859 261.31641 L 296.31836 264.71289 L 296.31055 265.21484 L 296.20312 268.66602 L 296.18359 269.11523 L 295.96875 272.61719 L 295.93945 273.01367 L 295.62891 276.56445 L 295.59375 276.91016 L 295.19531 280.50586 L 295.1582 280.80664 L 294.67969 284.44531 L 294.64453 284.70117 L 294.0957 288.37695 L 294.04688 288.68359 L 293.99609 288.97852 L 265.05078 284.04492 L 264.42383 283.95117 L 264.42578 283.9375 L 264.42188 283.9375 L 264.45117 283.77148 L 264.93555 280.53125 L 264.94336 280.46875 L 265.40234 276.98242 L 265.75391 273.80664 L 266.03711 270.58594 L 266.22266 267.54102 L 266.31836 264.5 L 266.30859 261.67969 L 266.20117 258.9375 L 265.98828 256.32812 L 265.66797 253.81836 L 265.24219 251.44141 L 264.70898 249.17969 L 264.03711 246.9375 L 263.72461 246.04688 L 263.34961 245.08008 L 262.94531 244.12891 L 262.49609 243.16602 L 262.02148 242.23438 L 261.5293 241.34766 L 261.01172 240.49023 L 260.4375 239.61133 L 259.8418 238.76953 L 259.1582 237.875 L 283 219.66602 z M 439.22266 235 A 65 65 0 0 1 504.22266 300 A 65 65 0 0 1 439.22266 365 A 65 65 0 0 1 374.22266 300 A 65 65 0 0 1 439.22266 235 z M 258.87109 312.95508 L 288.2793 318.88867 L 288.17188 319.41211 L 288.15625 319.49609 L 288.1543 319.50195 L 286.66602 327.125 L 286.66211 327.14844 L 285.33789 334.53711 L 284.75195 338.14648 L 284.2207 341.74805 L 283.74414 345.42383 L 283.36328 348.84766 L 283.05664 352.29492 L 282.83594 355.71094 L 282.70898 359.07617 L 282.68555 362.29688 L 282.76758 365.48242 L 282.96094 368.60547 L 283.26562 371.59375 L 283.50781 373.27148 L 253.81641 377.56641 L 253.52734 375.56445 L 253.44922 374.93359 L 253.08398 371.31836 L 253.03516 370.73047 L 252.80859 367.07617 L 252.78516 366.53516 L 252.68945 362.84375 L 252.68555 362.34961 L 252.71094 358.62305 L 252.72266 358.17383 L 252.86133 354.41992 L 252.88281 354.01367 L 253.12695 350.23242 L 253.1543 349.86719 L 253.49219 346.0625 L 253.52539 345.74023 L 253.94922 341.91602 L 253.98242 341.63086 L 254.48242 337.79102 L 254.51758 337.54297 L 255.08594 333.68945 L 255.11719 333.47656 L 255.74414 329.61328 L 255.78711 329.36328 L 257.17578 321.62305 L 257.21875 321.39648 L 258.72852 313.66016 L 258.74805 313.57031 L 258.87109 312.95508 z M 386.10938 372.19336 L 397.50195 379.73242 L 411.26562 388.53711 L 411.25586 388.55469 L 411.12891 388.74609 L 409.03516 391.91211 L 408.90039 392.11328 L 406.75195 395.24805 L 406.60352 395.46094 L 404.40234 398.55859 L 404.24023 398.78125 L 401.98633 401.83398 L 401.81055 402.06641 L 399.50391 405.06445 L 399.31055 405.31055 L 396.95312 408.24609 L 396.74023 408.50391 L 394.33203 411.36914 L 394.09961 411.64062 L 391.64258 414.42773 L 391.38672 414.71094 L 388.87891 417.41211 L 388.59766 417.70898 L 386.04297 420.31641 L 385.73242 420.625 L 383.12891 423.13086 L 382.78711 423.45117 L 380.13672 425.84766 L 379.75781 426.17773 L 377.0625 428.45703 L 376.64453 428.79883 L 373.90234 430.95117 L 373.43945 431.29883 L 370.6543 433.31836 L 370.14453 433.67188 L 367.31445 435.54883 L 366.75195 435.9043 L 365.54492 436.62891 L 350.0918 410.91602 L 350.99414 410.37305 L 353.28711 408.85352 L 355.58008 407.19531 L 357.92188 405.35547 L 360.21289 403.41797 L 362.48047 401.36719 L 364.77734 399.1543 L 367.02344 396.86133 L 369.26758 394.44336 L 371.46875 391.94336 L 373.64258 389.35938 L 375.86719 386.58789 L 377.91797 383.92188 L 380.00977 381.0918 L 382.13086 378.10742 L 382.15039 378.08008 L 384.09961 375.23242 L 385.99414 372.36914 L 386.10938 372.19336 z M 291.63867 394.75586 L 291.77344 394.95312 L 292.61133 396.10742 L 293.50781 397.26172 L 294.4043 398.3457 L 295.41211 399.49219 L 296.44336 400.5957 L 297.55273 401.71094 L 298.66602 402.76758 L 299.91406 403.88477 L 301.2168 404.98242 L 302.53516 406.03125 L 303.98828 407.12305 L 305.43555 408.15039 L 307.01367 409.20508 L 308.67383 410.25586 L 310.39648 411.28711 L 312.2168 412.3125 L 313.51367 413 L 314.80664 413.63477 L 316.10156 414.2207 L 317.38086 414.75 L 318.55859 415.19531 L 319.83008 415.62891 L 321.04492 415.99414 L 322.22461 416.30664 L 323.36523 416.56641 L 324.4668 416.77734 L 325.63477 416.96094 L 326.72266 417.08984 L 327.85156 417.18555 L 328.92383 417.23828 L 329.64453 417.25 L 329.25977 447.24609 L 328.29688 447.23438 L 327.76758 447.21875 L 326.14062 447.14062 L 325.61133 447.10547 L 323.97656 446.96875 L 323.44727 446.91406 L 321.80469 446.7168 L 321.2793 446.64453 L 319.62695 446.38867 L 319.10547 446.29883 L 317.44531 445.97852 L 316.93164 445.87109 L 315.26367 445.49023 L 314.75781 445.36523 L 313.08008 444.92188 L 312.58594 444.78125 L 310.90039 444.27148 L 310.41797 444.11719 L 308.72461 443.54102 L 308.25586 443.37305 L 306.55273 442.73242 L 306.09766 442.55273 L 304.38867 441.8418 L 303.94727 441.65234 L 302.23047 440.875 L 301.80469 440.67383 L 300.08008 439.82617 L 299.66992 439.61719 L 297.9375 438.69922 L 297.58203 438.50586 L 295.4668 437.31055 L 295.14648 437.125 L 293.10742 435.90625 L 292.7832 435.70703 L 290.81836 434.46289 L 290.49219 434.25 L 288.59961 432.98242 L 288.26953 432.75586 L 286.44922 431.46484 L 286.11914 431.22266 L 284.36914 429.9082 L 284.03711 429.65234 L 282.35742 428.31445 L 282.02734 428.04492 L 280.41406 426.68555 L 280.08594 426.40039 L 278.54102 425.01953 L 278.2168 424.7207 L 276.73633 423.31641 L 276.41602 423.00391 L 275.00195 421.58008 L 274.6875 421.25391 L 273.33594 419.80859 L 273.0293 419.4707 L 271.74023 418.00586 L 271.44141 417.6543 L 270.21484 416.16992 L 269.92578 415.80859 L 268.75977 414.30469 L 268.48047 413.93359 L 267.37305 412.41016 L 267.10547 412.0293 L 266.83984 411.64258 L 291.63867 394.75586 z "
       transform="translate(0,452.36198)"
       id="circle6005" />
  </g>
</svg>
