<?xml version="1.0" encoding="UTF-8" standalone="no"?>
<!-- Created with Inkscape (http://www.inkscape.org/) -->

<svg
   xmlns:dc="http://purl.org/dc/elements/1.1/"
   xmlns:cc="http://creativecommons.org/ns#"
   xmlns:rdf="http://www.w3.org/1999/02/22-rdf-syntax-ns#"
   xmlns:svg="http://www.w3.org/2000/svg"
   xmlns="http://www.w3.org/2000/svg"
   xmlns:sodipodi="http://sodipodi.sourceforge.net/DTD/sodipodi-0.dtd"
   xmlns:inkscape="http://www.inkscape.org/namespaces/inkscape"
   width="600"
   height="600"
   viewBox="0 0 600.00005 600.00002"
   id="svg2"
   version="1.1"
   inkscape:version="0.91 r13725"
   sodipodi:docname="synth1.svg">
  <defs
     id="defs4">
    <inkscape:path-effect
       effect="powerstroke"
       id="path-effect6167"
       is_visible="true"
       offset_points="0,0.5"
       sort_points="true"
       interpolator_type="CubicBezierJohan"
       interpolator_beta="0.2"
       start_linecap_type="zerowidth"
       linejoin_type="round"
       miter_limit="4"
       end_linecap_type="zerowidth"
       cusp_linecap_type="round" />
    <marker
       inkscape:stockid="Arrow1Lstart"
       orient="auto"
       refY="0.0"
       refX="0.0"
       id="Arrow1Lstart"
       style="overflow:visible"
       inkscape:isstock="true">
      <path
         id="path5586"
         d="M 0.0,0.0 L 5.0,-5.0 L -12.5,0.0 L 5.0,5.0 L 0.0,0.0 z "
         style="fill-rule:evenodd;stroke:#ffffff;stroke-width:1pt;stroke-opacity:1;fill:#ffffff;fill-opacity:1"
         transform="scale(0.8) translate(12.5,0)" />
    </marker>
  </defs>
  <sodipodi:namedview
     id="base"
     pagecolor="#ffffff"
     bordercolor="#666666"
     borderopacity="1.0"
     inkscape:pageopacity="0.0"
     inkscape:pageshadow="2"
     inkscape:zoom="1"
     inkscape:cx="378.7303"
     inkscape:cy="296.2125"
     inkscape:document-units="px"
     inkscape:current-layer="g4200"
     showgrid="false"
     units="px"
     showguides="false"
     inkscape:guide-bbox="true"
     inkscape:window-width="1440"
     inkscape:window-height="856"
     inkscape:window-x="-1"
     inkscape:window-y="0"
     inkscape:window-maximized="0">
    <sodipodi:guide
       position="0,362.00001"
       orientation="1,0"
       id="guide4136" />
    <sodipodi:guide
       position="96.000008,600.00002"
       orientation="0,1"
       id="guide4138" />
    <sodipodi:guide
       position="600.00005,224.00001"
       orientation="1,0"
       id="guide4140" />
    <sodipodi:guide
       position="574.00005,1"
       orientation="0,1"
       id="guide4142" />
    <sodipodi:guide
       position="316.00003,300.00001"
       orientation="0,1"
       id="guide4144" />
    <sodipodi:guide
       position="300.00002,201.00001"
       orientation="1,0"
       id="guide4146" />
    <sodipodi:guide
       position="200.00002,148"
       orientation="1,0"
       id="guide4171" />
    <sodipodi:guide
       position="400.00003,1"
       orientation="1,0"
       id="guide4173" />
    <sodipodi:guide
       position="98.000008,230.00001"
       orientation="1,0"
       id="guide4175" />
    <sodipodi:guide
       position="502.00004,148"
       orientation="1,0"
       id="guide4177" />
    <sodipodi:guide
       position="200.00002,424.00001"
       orientation="0,1"
       id="guide4179" />
    <sodipodi:guide
       position="300.00002,176.00001"
       orientation="0,1"
       id="guide4181" />
    <sodipodi:guide
       position="200.00002,268.00001"
       orientation="1,0"
       id="guide4185" />
    <sodipodi:guide
       position="150.00001,248.00001"
       orientation="1,0"
       id="guide4187" />
    <sodipodi:guide
       position="250.00002,213.00001"
       orientation="1,0"
       id="guide4189" />
    <sodipodi:guide
       position="350.00003,197.00001"
       orientation="1,0"
       id="guide4191" />
    <sodipodi:guide
       position="450.00004,131"
       orientation="1,0"
       id="guide4193" />
  </sodipodi:namedview>
  <metadata
     id="metadata7">
    <rdf:RDF>
      <cc:Work
         rdf:about="">
        <dc:format>image/svg+xml</dc:format>
        <dc:type
           rdf:resource="http://purl.org/dc/dcmitype/StillImage" />
        <dc:title></dc:title>
      </cc:Work>
    </rdf:RDF>
  </metadata>
  <g
     inkscape:label="Layer 1"
     inkscape:groupmode="layer"
     id="layer1"
     transform="translate(0,-452.36201)"
     style="display:none"
     sodipodi:insensitive="true">
    <ellipse
       style="opacity:1;fill:none;fill-opacity:1;stroke:#ff8c00;stroke-width:30.20134544;stroke-miterlimit:4;stroke-dasharray:none;stroke-dashoffset:0;stroke-opacity:1"
       id="path4321"
       cx="300.00003"
       cy="752.362"
       rx="284.89938"
       ry="284.89935" />
    <circle
       style="opacity:1;fill:#ff8c00;fill-opacity:1;stroke:none;stroke-width:30;stroke-miterlimit:4;stroke-dasharray:none;stroke-dashoffset:0;stroke-opacity:1"
       id="path4325"
       cx="300.00003"
       cy="752.362"
       r="240.00003" />
    <path
       style="fill:none;fill-rule:evenodd;stroke:#ffffff;stroke-width:30.00000381;stroke-linecap:butt;stroke-linejoin:round;stroke-miterlimit:0;stroke-dasharray:60.00000715, 30.00000358;stroke-dashoffset:99.00001526;stroke-opacity:1"
       d="m 58.585778,816.56298 c 0,0 77.071072,-212.05888 184.698492,-154.49033 74.95677,40.09343 -30.15521,165.31914 61.67409,215.73298 74.10388,40.68267 127.55636,-114.12994 127.55636,-114.12994"
       id="path5552"
       inkscape:connector-curvature="0"
       sodipodi:nodetypes="cssc" />
    <circle
       style="opacity:1;fill:#ffffff;fill-opacity:1;stroke:none;stroke-width:30;stroke-miterlimit:4;stroke-dasharray:30, 30;stroke-dashoffset:0;stroke-opacity:1"
       id="path5557"
       cx="439.22244"
       cy="752.362"
       r="65.000008" />
  </g>
  <g
     style="display:none"
     transform="translate(0,-452.36201)"
     id="g4161"
     inkscape:groupmode="layer"
     inkscape:label="Layer 1 copy"
     sodipodi:insensitive="true">
    <ellipse
       ry="284.89935"
       rx="284.89938"
       cy="752.362"
       cx="300.00003"
       id="ellipse4163"
       style="opacity:1;fill:none;fill-opacity:1;stroke:#ff8c00;stroke-width:30.20134544;stroke-miterlimit:4;stroke-dasharray:none;stroke-dashoffset:0;stroke-opacity:1" />
    <circle
       r="240.00003"
       cy="752.362"
       cx="300.00003"
       id="circle4165"
       style="opacity:1;fill:#ff8c00;fill-opacity:1;stroke:none;stroke-width:30;stroke-miterlimit:4;stroke-dasharray:none;stroke-dashoffset:0;stroke-opacity:1" />
    <path
       style="fill:none;fill-rule:evenodd;stroke:#ffffff;stroke-width:40.11811447;stroke-linecap:butt;stroke-linejoin:miter;stroke-miterlimit:4;stroke-dasharray:none;stroke-opacity:1"
       d="m -114.46411,751.35317 c 0,0 65.773726,9.08673 91.010799,0 68.334241,-24.60407 3.640383,-123.79017 94.651234,-122.80769 91.010857,0.98248 3.7e-5,244.63296 91.010807,244.63291 91.01077,-5e-5 -6e-5,-245.61539 91.01079,-244.63291 91.01087,0.98248 6e-5,244.63296 91.01081,244.63291 91.01075,-5e-5 6e-5,-243.65043 91.0108,-244.63291 91.01075,-0.98248 -10e-5,244.63286 91.0108,244.63291 91.01091,5e-5 -3.64054,-245.61539 91.01081,-244.63291 94.65134,0.98248 26.31699,98.20362 94.65123,122.80769 23.72285,8.54152 85.55015,0 85.55015,0"
       id="path4195"
       inkscape:connector-curvature="0"
       sodipodi:nodetypes="cazzzzzzzsc" />
  </g>
  <g
     inkscape:label="Layer 1 copy copy"
     inkscape:groupmode="layer"
     id="g4200"
     transform="translate(0,-452.36201)"
     style="display:inline;opacity:1">
    <ellipse
       style="opacity:1;fill:none;fill-opacity:1;stroke:#ff8c00;stroke-width:30.20134544;stroke-miterlimit:4;stroke-dasharray:none;stroke-dashoffset:0;stroke-opacity:1"
       id="ellipse4202"
       cx="300.00003"
       cy="752.362"
       rx="284.89938"
       ry="284.89935" />
    <path
       style="opacity:1;fill:#ff8c00;fill-opacity:1;stroke:none;stroke-width:30;stroke-miterlimit:4;stroke-dasharray:none;stroke-dashoffset:0;stroke-opacity:1"
       d="M 300,60 A 240,240 0 0 0 99.09375,169.0957 c 3.44325,2.14931 6.57516,4.68661 9.30273,7.56641 8.98769,9.48929 13.96313,21.56164 17.17969,34.55664 6.43313,25.99 6.12696,57.13268 6.12695,87.65039 0,30.51771 0.31077,60.41575 5.24415,80.24024 2.46668,9.91224 6.01118,16.92958 9.77343,20.84765 3.76225,3.91807 7.4584,5.85939 15.48828,5.85938 8.00291,0 11.67472,-1.94012 15.44922,-5.90039 3.7745,-3.96026 7.33512,-11.06218 9.80664,-21.06055 4.94305,-19.99676 5.25001,-50.08214 5.25,-80.72266 0,-30.64051 -0.31228,-61.83168 6.13086,-87.75781 3.22158,-12.96307 8.20622,-24.99576 17.2793,-34.38477 9.07308,-9.38899 22.52015,-14.96376 37.25586,-14.80468 14.73571,0.15907 28.04942,5.98726 37.03711,15.47656 8.98769,9.48929 13.96312,21.56164 17.17969,34.55664 6.43313,25.99 6.12695,57.13268 6.12695,87.65039 0,30.51771 0.31076,60.41575 5.24414,80.24024 2.46669,9.91224 6.01119,16.92958 9.77344,20.84765 3.76224,3.91807 7.45839,5.85939 15.48828,5.85938 8.02989,0 11.72603,-1.9413 15.48828,-5.85938 3.76225,-3.91808 7.30674,-10.93541 9.77344,-20.84765 4.93338,-19.82449 5.24413,-49.72254 5.24414,-80.24024 0,-30.51771 -0.30617,-61.6604 6.12695,-87.65039 3.21656,-12.995 8.19201,-25.06735 17.17969,-34.55664 8.98768,-9.48929 22.30141,-15.31749 37.03711,-15.47656 14.7357,-0.15908 28.18278,5.41568 37.25586,14.80468 9.07307,9.38901 14.05773,21.4217 17.27929,34.38477 6.44313,25.92613 6.13087,57.11731 6.13086,87.75781 0,30.64051 0.30695,60.72591 5.25,80.72266 2.47153,9.99837 6.03214,17.10029 9.80664,21.06055 1.63197,1.71228 3.24534,3.04435 5.19727,4.00781 A 240,240 0 0 0 540,300 240,240 0 0 0 300,60 Z m -46.94336,131.18359 c -8.017,-0.0865 -11.63406,1.79927 -15.35937,5.6543 -3.72532,3.85503 -7.27168,10.84822 -9.73829,20.77344 -4.93321,19.85042 -5.24414,49.88098 -5.24414,80.52148 1e-5,30.64052 0.30634,61.89644 -6.12695,87.92188 -3.21664,13.01271 -8.189,25.09059 -17.21289,34.55859 -9.02389,9.468 -22.41623,15.20313 -37.16602,15.20313 -14.72278,10e-6 -28.09081,-5.67164 -37.12695,-15.08203 -9.03614,-9.41039 -14.02461,-21.43553 -17.24609,-34.38086 -6.44296,-25.89066 -6.13282,-56.96667 -6.13282,-87.48438 1e-5,-30.51771 -0.30481,-60.47257 -5.248042,-80.44336 -2.471617,-9.98539 -6.029127,-17.10942 -9.839844,-21.13281 -0.72567,-0.76617 -1.457694,-1.43649 -2.208984,-2.05664 A 240,240 0 0 0 60,300 240,240 0 0 0 300,540 240,240 0 0 0 501.52734,429.89062 c -4.69452,-2.44288 -8.90654,-5.56851 -12.4414,-9.27734 -9.0239,-9.468 -13.99624,-21.54588 -17.21289,-34.55859 -6.43331,-26.02544 -6.12696,-57.28136 -6.12696,-87.92188 1e-5,-30.64051 -0.31094,-60.67106 -5.24414,-80.52148 -2.4666,-9.92522 -6.01492,-16.91841 -9.74023,-20.77344 -3.72531,-3.85503 -7.34239,-5.7408 -15.35938,-5.6543 -8.01698,0.0865 -11.76741,2.08599 -15.57812,6.10938 -3.81071,4.02339 -7.36824,11.14742 -9.83984,21.13281 -4.94323,19.97078 -5.24804,49.92565 -5.24805,80.44336 -1e-5,30.5177 0.31015,61.59372 -6.13281,87.48438 -3.22149,12.94533 -8.20996,24.97047 -17.2461,34.38086 -9.03613,9.41039 -22.40416,15.08203 -37.12695,15.08203 -14.7228,10e-6 -28.09083,-5.67164 -37.12695,-15.08203 -9.03614,-9.41039 -14.02462,-21.43553 -17.2461,-34.38086 -6.44296,-25.89066 -6.13281,-56.96667 -6.13281,-87.48438 0,-30.51771 -0.30481,-60.47257 -5.24805,-80.44336 -2.47162,-9.98539 -6.02912,-17.10942 -9.83984,-21.13281 -3.81072,-4.0234 -7.56308,-6.02288 -15.58008,-6.10938 z"
       transform="translate(0,452.36198)"
       id="circle4204"
       inkscape:connector-curvature="0" />
  </g>
</svg>
