<?xml version="1.0" encoding="UTF-8" standalone="no"?>
<!-- Created with Inkscape (http://www.inkscape.org/) -->

<svg
   xmlns:dc="http://purl.org/dc/elements/1.1/"
   xmlns:cc="http://creativecommons.org/ns#"
   xmlns:rdf="http://www.w3.org/1999/02/22-rdf-syntax-ns#"
   xmlns:svg="http://www.w3.org/2000/svg"
   xmlns="http://www.w3.org/2000/svg"
   xmlns:sodipodi="http://sodipodi.sourceforge.net/DTD/sodipodi-0.dtd"
   xmlns:inkscape="http://www.inkscape.org/namespaces/inkscape"
   width="600"
   height="600"
   viewBox="0 0 600.00005 600.00002"
   id="svg2"
   version="1.1"
   inkscape:version="0.91 r13725"
   sodipodi:docname="unlink.svg">
  <defs
     id="defs4">
    <inkscape:path-effect
       effect="powerstroke"
       id="path-effect6167"
       is_visible="true"
       offset_points="0,0.5"
       sort_points="true"
       interpolator_type="CubicBezierJohan"
       interpolator_beta="0.2"
       start_linecap_type="zerowidth"
       linejoin_type="round"
       miter_limit="4"
       end_linecap_type="zerowidth"
       cusp_linecap_type="round" />
    <marker
       inkscape:stockid="Arrow1Lstart"
       orient="auto"
       refY="0.0"
       refX="0.0"
       id="Arrow1Lstart"
       style="overflow:visible"
       inkscape:isstock="true">
      <path
         id="path5586"
         d="M 0.0,0.0 L 5.0,-5.0 L -12.5,0.0 L 5.0,5.0 L 0.0,0.0 z "
         style="fill-rule:evenodd;stroke:#ffffff;stroke-width:1pt;stroke-opacity:1;fill:#ffffff;fill-opacity:1"
         transform="scale(0.8) translate(12.5,0)" />
    </marker>
  </defs>
  <sodipodi:namedview
     id="base"
     pagecolor="#ffffff"
     bordercolor="#666666"
     borderopacity="1.0"
     inkscape:pageopacity="0.0"
     inkscape:pageshadow="2"
     inkscape:zoom="1"
     inkscape:cx="373.80523"
     inkscape:cy="227.23231"
     inkscape:document-units="px"
     inkscape:current-layer="g4253"
     showgrid="false"
     units="px"
     showguides="false"
     inkscape:guide-bbox="true"
     inkscape:window-width="1447"
     inkscape:window-height="886"
     inkscape:window-x="242"
     inkscape:window-y="1058"
     inkscape:window-maximized="0">
    <sodipodi:guide
       position="0,362.00001"
       orientation="1,0"
       id="guide4136" />
    <sodipodi:guide
       position="96.000008,600.00002"
       orientation="0,1"
       id="guide4138" />
    <sodipodi:guide
       position="600.00005,224.00001"
       orientation="1,0"
       id="guide4140" />
    <sodipodi:guide
       position="574.00005,1"
       orientation="0,1"
       id="guide4142" />
    <sodipodi:guide
       position="316.00003,300.00001"
       orientation="0,1"
       id="guide4144" />
    <sodipodi:guide
       position="300.00002,201.00001"
       orientation="1,0"
       id="guide4146" />
  </sodipodi:namedview>
  <metadata
     id="metadata7">
    <rdf:RDF>
      <cc:Work
         rdf:about="">
        <dc:format>image/svg+xml</dc:format>
        <dc:type
           rdf:resource="http://purl.org/dc/dcmitype/StillImage" />
        <dc:title></dc:title>
      </cc:Work>
    </rdf:RDF>
  </metadata>
  <g
     inkscape:label="Layer 1 copy copy"
     inkscape:groupmode="layer"
     id="g4167"
     transform="translate(0,-452.36201)"
     style="display:none"
     sodipodi:insensitive="true">
    <ellipse
       style="opacity:1;fill:none;fill-opacity:1;stroke:#ffd700;stroke-width:30.20134544;stroke-miterlimit:4;stroke-dasharray:none;stroke-dashoffset:0;stroke-opacity:1"
       id="ellipse4169"
       cx="300.00003"
       cy="752.362"
       rx="284.89938"
       ry="284.89935" />
    <path
       style="opacity:1;fill:#ffd700;fill-opacity:1;stroke:none;stroke-width:30;stroke-miterlimit:4;stroke-dasharray:none;stroke-dashoffset:0;stroke-opacity:1"
       d="M 300,60 A 240,240 0 0 0 60,300 240,240 0 0 0 300,540 240,240 0 0 0 540,300 240,240 0 0 0 300,60 Z M 149.96484,250 a 49.99999,49.99999 0 0 1 47.63868,35 l 204.49023,0 a 49.999996,49.999996 0 0 1 47.68555,-35 49.999996,49.999996 0 0 1 50,50 49.999996,49.999996 0 0 1 -50,50 49.999996,49.999996 0 0 1 -47.63672,-35 l -204.49219,0 a 49.99999,49.99999 0 0 1 -47.68555,35 49.99999,49.99999 0 0 1 -49.999996,-50 49.99999,49.99999 0 0 1 49.999996,-50 z"
       transform="translate(0,452.36198)"
       id="circle4172"
       inkscape:connector-curvature="0" />
  </g>
  <g
     style="display:inline"
     transform="translate(0,-452.36201)"
     id="g4253"
     inkscape:groupmode="layer"
     inkscape:label="Layer 1 copy copy copy">
    <ellipse
       ry="284.89935"
       rx="284.89938"
       cy="752.362"
       cx="300.00003"
       id="ellipse4255"
       style="opacity:1;fill:none;fill-opacity:1;stroke:#ffd700;stroke-width:30.20134544;stroke-miterlimit:4;stroke-dasharray:none;stroke-dashoffset:0;stroke-opacity:1" />
    <path
       style="opacity:1;fill:#ffd700;fill-opacity:1;stroke:none;stroke-width:30;stroke-miterlimit:4;stroke-dasharray:none;stroke-dashoffset:0;stroke-opacity:1"
       d="M 300 60 C 167.45182 60 60 167.45182 60 300 C 60 432.54818 167.45182 540 300 540 C 432.54818 540 540 432.54818 540 300 C 540 167.45182 432.54818 60 300 60 z M 246 110 A 12.999986 12.999986 0 0 1 258.98242 122.5 L 259 122.5 L 259 123 L 259 180.5 L 258.97461 180.5 A 12.999986 12.999986 0 0 1 246 193 A 12.999986 12.999986 0 0 1 233.01758 180.5 L 233 180.5 L 233 123 L 233 122.5 L 233.02539 122.5 A 12.999986 12.999986 0 0 1 246 110 z M 390.93555 144.48047 C 408.1279 144.39133 427.47871 150.18762 446 168.5 C 489.24603 211.25823 447 265.5 447 265.5 L 372 337.5 C 372 337.5 318.99992 380 263.5 340 C 252.0271 331.73124 252.00178 318.47011 261.5 309.5 C 275.85469 295.94345 291.5 311 291.5 311 C 316.40968 327.36483 339.5 310.5 340.5 310.5 C 341.5 310.5 413 243 413 243 C 413 243 439.45034 214.45618 414 192 C 388.5 169.5 357.5 197.5 357.5 197.5 L 321.5 231 C 321.5 231 313.73568 224.49591 300 222 C 285.67437 219.39689 268.5 224.5 268.5 224.5 L 336.5 163.5 C 336.5 163.5 360.28818 144.63938 390.93555 144.48047 z M 178.66211 148.33203 A 12.999988 12.999988 0 0 1 178.66406 148.33203 A 12.999988 12.999988 0 0 1 179.07617 148.3457 A 12.999988 12.999988 0 0 1 187.29688 151.79297 L 187.31055 151.78125 L 187.66406 152.13477 L 228.32227 192.79297 L 228.30469 192.81055 A 12.999988 12.999988 0 0 1 227.96875 210.82422 A 12.999988 12.999988 0 0 1 209.94922 211.16602 L 209.9375 211.17773 L 169.2793 170.51953 L 168.92578 170.16602 L 168.94336 170.14844 A 12.999988 12.999988 0 0 1 169.2793 152.13477 A 12.999988 12.999988 0 0 1 178.66211 148.33203 z M 138.23047 217.26953 L 138.73047 217.26953 L 196.23047 217.26953 L 196.23047 217.29492 A 12.99999 12.99999 0 0 1 208.73047 230.26953 A 12.99999 12.99999 0 0 1 196.23047 243.25195 L 196.23047 243.26953 L 138.73047 243.26953 L 138.23047 243.26953 L 138.23047 243.24414 A 12.99999 12.99999 0 0 1 125.73047 230.26953 A 12.99999 12.99999 0 0 1 138.23047 217.28711 L 138.23047 217.26953 z M 286.34375 242.48633 C 301.65808 242.68774 318.75781 247.13086 336.10156 259.63086 C 347.57446 267.89962 347.59978 281.16075 338.10156 290.13086 C 323.74687 303.68741 308.10156 288.63086 308.10156 288.63086 C 283.19195 272.26603 260.10156 289.13086 259.10156 289.13086 C 258.10156 289.13086 186.60156 356.63086 186.60156 356.63086 C 186.60156 356.63086 160.15129 385.17468 185.60156 407.63086 C 211.10156 430.13086 242.10156 402.13086 242.10156 402.13086 L 278.10156 368.63086 C 278.10156 368.63086 285.86588 375.13495 299.60156 377.63086 C 313.92719 380.23397 331.10156 375.13086 331.10156 375.13086 L 263.10156 436.13086 C 263.10156 436.13086 205.13908 482.08699 153.60156 431.13086 C 110.35552 388.37255 152.60156 334.13086 152.60156 334.13086 L 227.60156 262.13086 C 227.60156 262.13086 252.65223 242.04321 286.34375 242.48633 z M 409.5 352 L 467 352 L 467.5 352 L 467.5 352.02539 A 12.999992 12.999992 0 0 1 480 365 A 12.999992 12.999992 0 0 1 467.5 377.98242 L 467.5 378 L 467 378 L 409.5 378 L 409.5 377.97461 A 12.999992 12.999992 0 0 1 397 365 A 12.999992 12.999992 0 0 1 409.5 352.01758 L 409.5 352 z M 387.14648 380.64453 A 12.999994 12.999994 0 0 1 387.55859 380.6582 A 12.999994 12.999994 0 0 1 395.78125 384.10352 L 395.79297 384.0918 L 436.45117 424.75 L 436.80469 425.10352 L 436.78711 425.12305 A 12.999994 12.999994 0 0 1 436.45117 443.13477 A 12.999994 12.999994 0 0 1 418.43359 443.47656 L 418.41992 443.48828 L 418.06641 443.13477 L 377.4082 402.47656 L 377.42578 402.45898 A 12.999994 12.999994 0 0 1 377.76172 384.44531 A 12.999994 12.999994 0 0 1 387.14648 380.64453 z M 359.73047 402.26953 A 12.999996 12.999996 0 0 1 372.71289 414.76953 L 372.73047 414.76953 L 372.73047 472.26953 L 372.73047 472.76953 L 372.70508 472.76953 A 12.999996 12.999996 0 0 1 359.73047 485.26953 A 12.999996 12.999996 0 0 1 346.74805 472.76953 L 346.73047 472.76953 L 346.73047 472.26953 L 346.73047 414.76953 L 346.75586 414.76953 A 12.999996 12.999996 0 0 1 359.73047 402.26953 z "
       transform="translate(0,452.36198)"
       id="path4257" />
  </g>
  <g
     inkscape:groupmode="layer"
     id="layer1"
     inkscape:label="chain"
     style="display:inline" />
</svg>
