<?xml version="1.0" encoding="UTF-8" standalone="no"?>
<svg
   xmlns:dc="http://purl.org/dc/elements/1.1/"
   xmlns:cc="http://creativecommons.org/ns#"
   xmlns:rdf="http://www.w3.org/1999/02/22-rdf-syntax-ns#"
   xmlns:svg="http://www.w3.org/2000/svg"
   xmlns="http://www.w3.org/2000/svg"
   xmlns:sodipodi="http://sodipodi.sourceforge.net/DTD/sodipodi-0.dtd"
   xmlns:inkscape="http://www.inkscape.org/namespaces/inkscape"
   version="1.1"
   x="0px"
   y="0px"
   viewBox="0 0 101.96754 101.96754"
   enable-background="new 0 0 100 100"
   xml:space="preserve"
   id="svg2"
   inkscape:version="0.91 r13725"
   sodipodi:docname="midi.svg"
   width="101.96754"
   height="101.96754"
   inkscape:export-filename="/Users/rpalacios/Development/bocas/q-react-canvas/public/icons/menu/midi.png"
   inkscape:export-xdpi="90"
   inkscape:export-ydpi="90"><metadata
     id="metadata284"><rdf:RDF><cc:Work
         rdf:about=""><dc:format>image/svg+xml</dc:format><dc:type
           rdf:resource="http://purl.org/dc/dcmitype/StillImage" /><dc:title></dc:title></cc:Work></rdf:RDF></metadata><defs
     id="defs282" /><sodipodi:namedview
     pagecolor="#ffffff"
     bordercolor="#666666"
     borderopacity="1"
     objecttolerance="10"
     gridtolerance="10"
     guidetolerance="10"
     inkscape:pageopacity="0"
     inkscape:pageshadow="2"
     inkscape:window-width="1440"
     inkscape:window-height="852"
     id="namedview280"
     showgrid="false"
     showguides="true"
     inkscape:guide-bbox="true"
     inkscape:zoom="2"
     inkscape:cx="85.667212"
     inkscape:cy="10.54823"
     inkscape:window-x="0"
     inkscape:window-y="0"
     inkscape:window-maximized="1"
     inkscape:current-layer="g126"
     fit-margin-top="0"
     fit-margin-left="0"
     fit-margin-right="0"
     fit-margin-bottom="0"><sodipodi:guide
       position="50.91169,75.130098"
       orientation="1,0"
       id="guide4167" /><sodipodi:guide
       position="25.986175,50.91169"
       orientation="0,1"
       id="guide4169" /></sodipodi:namedview><g
     id="g102"
     transform="translate(841.39753,-129.51788)"
     inkscape:export-xdpi="90"
     inkscape:export-ydpi="90"><circle
       style="fill:none;fill-opacity:1;stroke:#ff8c00;stroke-width:8;stroke-linecap:round;stroke-linejoin:round;stroke-miterlimit:4;stroke-dasharray:none;stroke-opacity:1"
       id="path4139"
       cx="-790.41376"
       cy="180.50165"
       r="47.983768" /><g
       transform="translate(-290.86106,14.309943)"
       id="g126"><path
         inkscape:connector-curvature="0"
         id="path130"
         d="m -493.948,142.496 0,5.349 -11,0 0,-5.349 c -10.507,2.484 -18.328,11.917 -18.328,23.182 0,13.16 10.668,23.828 23.828,23.828 13.16,0 23.828,-10.668 23.828,-23.828 0,-11.266 -7.821,-20.699 -18.328,-23.182 z m -22.016,25.111 -0.266,0.128 -3.912,1.875 -1.035,-2.16 3.912,-1.875 0.266,-0.128 0.017,-0.295 c 0.064,-1.111 0.716,-2.095 1.703,-2.567 0.407,-0.195 0.84,-0.294 1.287,-0.294 0.628,0 1.261,0.204 1.781,0.575 l 0.24,0.171 0.266,-0.128 3.912,-1.875 1.035,2.159 -3.912,1.875 -0.266,0.128 -0.017,0.295 c -0.064,1.111 -0.716,2.095 -1.703,2.567 -0.407,0.195 -0.84,0.294 -1.287,0.294 -0.628,0 -1.261,-0.204 -1.781,-0.575 l -0.24,-0.17 z m 9.285,5.977 c 0.435,1.024 0.286,2.195 -0.389,3.056 -0.572,0.729 -1.438,1.147 -2.377,1.147 -0.166,0 -0.334,-0.013 -0.498,-0.04 l -0.291,-0.047 -0.182,0.232 -2.677,3.414 -1.885,-1.477 2.677,-3.414 0.182,-0.232 -0.115,-0.272 c -0.435,-1.024 -0.286,-2.195 0.389,-3.056 0.572,-0.729 1.438,-1.147 2.377,-1.147 0.166,0 0.334,0.013 0.498,0.04 l 0.291,0.047 0.182,-0.232 2.677,-3.414 1.885,1.478 -2.677,3.414 -0.182,0.232 0.115,0.271 z m 8.687,8.691 -0.258,0.143 0,0.295 0,4.338 -2.395,0 0,-4.338 0,-0.295 -0.258,-0.143 c -0.974,-0.538 -1.579,-1.551 -1.579,-2.645 0,-1.094 0.605,-2.107 1.579,-2.645 l 0.258,-0.143 0,-0.295 0,-4.338 2.395,0 0,4.338 0,0.295 0.258,0.143 c 0.974,0.538 1.579,1.551 1.579,2.645 0,1.094 -0.605,2.107 -1.579,2.645 z m 12.189,-0.928 -2.677,-3.414 -0.182,-0.232 -0.291,0.047 c -0.164,0.027 -0.332,0.04 -0.498,0.04 -0.939,0 -1.805,-0.418 -2.377,-1.147 -0.675,-0.861 -0.824,-2.032 -0.389,-3.056 l 0.115,-0.272 -0.182,-0.232 -2.677,-3.414 1.885,-1.478 2.677,3.414 0.182,0.232 0.291,-0.047 c 0.164,-0.027 0.332,-0.04 0.498,-0.04 0.939,0 1.805,0.418 2.377,1.147 0.675,0.861 0.824,2.032 0.389,3.056 l -0.115,0.272 0.182,0.232 2.677,3.414 -1.885,1.478 z m 3.137,-13.612 -0.266,-0.128 -0.24,0.171 c -0.52,0.371 -1.152,0.575 -1.781,0.575 -0.447,0 -0.88,-0.099 -1.287,-0.294 -0.986,-0.473 -1.639,-1.456 -1.703,-2.567 l -0.017,-0.295 -0.266,-0.128 -3.912,-1.875 1.035,-2.159 3.912,1.875 0.266,0.128 0.24,-0.171 c 0.52,-0.371 1.152,-0.575 1.781,-0.575 0.447,0 0.88,0.099 1.287,0.294 0.986,0.473 1.639,1.456 1.703,2.567 l 0.017,0.295 0.266,0.128 3.912,1.875 -1.035,2.16 -3.912,-1.876 z"
         style="fill:#ff8c00;fill-opacity:1;stroke:none;stroke-opacity:1" /></g></g><g
     inkscape:groupmode="layer"
     id="layer1"
     inkscape:label="Layer 1" /></svg>