<?xml version="1.0" encoding="UTF-8" standalone="no"?>
<!-- Created with Inkscape (http://www.inkscape.org/) -->

<svg
   xmlns:dc="http://purl.org/dc/elements/1.1/"
   xmlns:cc="http://creativecommons.org/ns#"
   xmlns:rdf="http://www.w3.org/1999/02/22-rdf-syntax-ns#"
   xmlns:svg="http://www.w3.org/2000/svg"
   xmlns="http://www.w3.org/2000/svg"
   xmlns:sodipodi="http://sodipodi.sourceforge.net/DTD/sodipodi-0.dtd"
   xmlns:inkscape="http://www.inkscape.org/namespaces/inkscape"
   width="600"
   height="600"
   viewBox="0 0 600.00005 600.00002"
   id="svg2"
   version="1.1"
   inkscape:version="0.91 r13725"
   sodipodi:docname="circular-stream.svg">
  <defs
     id="defs4">
    <marker
       inkscape:stockid="Arrow1Lstart"
       orient="auto"
       refY="0.0"
       refX="0.0"
       id="Arrow1Lstart"
       style="overflow:visible"
       inkscape:isstock="true">
      <path
         id="path5586"
         d="M 0.0,0.0 L 5.0,-5.0 L -12.5,0.0 L 5.0,5.0 L 0.0,0.0 z "
         style="fill-rule:evenodd;stroke:#ffffff;stroke-width:1pt;stroke-opacity:1;fill:#ffffff;fill-opacity:1"
         transform="scale(0.8) translate(12.5,0)" />
    </marker>
  </defs>
  <sodipodi:namedview
     id="base"
     pagecolor="#ffffff"
     bordercolor="#666666"
     borderopacity="1.0"
     inkscape:pageopacity="0.0"
     inkscape:pageshadow="2"
     inkscape:zoom="0.5"
     inkscape:cx="469.43186"
     inkscape:cy="193.0165"
     inkscape:document-units="px"
     inkscape:current-layer="g6083"
     showgrid="false"
     units="px"
     showguides="true"
     inkscape:guide-bbox="true"
     inkscape:window-width="1323"
     inkscape:window-height="1011"
     inkscape:window-x="0"
     inkscape:window-y="0"
     inkscape:window-maximized="0">
    <sodipodi:guide
       position="0,362.00001"
       orientation="1,0"
       id="guide4136" />
    <sodipodi:guide
       position="96.000008,600.00002"
       orientation="0,1"
       id="guide4138" />
    <sodipodi:guide
       position="600.00005,224.00001"
       orientation="1,0"
       id="guide4140" />
    <sodipodi:guide
       position="574.00005,1"
       orientation="0,1"
       id="guide4142" />
    <sodipodi:guide
       position="316.00003,300.00001"
       orientation="0,1"
       id="guide4144" />
    <sodipodi:guide
       position="300.00002,201.00001"
       orientation="1,0"
       id="guide4146" />
  </sodipodi:namedview>
  <metadata
     id="metadata7">
    <rdf:RDF>
      <cc:Work
         rdf:about="">
        <dc:format>image/svg+xml</dc:format>
        <dc:type
           rdf:resource="http://purl.org/dc/dcmitype/StillImage" />
        <dc:title />
      </cc:Work>
    </rdf:RDF>
  </metadata>
  <g
     inkscape:label="Layer 1"
     inkscape:groupmode="layer"
     id="layer1"
     transform="translate(0,-452.36201)"
     style="display:none"
     sodipodi:insensitive="true">
    <ellipse
       style="opacity:1;fill:none;fill-opacity:1;stroke:#ff8c00;stroke-width:30.20134544;stroke-miterlimit:4;stroke-dasharray:none;stroke-dashoffset:0;stroke-opacity:1"
       id="path4321"
       cx="300.00003"
       cy="752.362"
       rx="284.89938"
       ry="284.89935" />
    <circle
       style="opacity:1;fill:#ff8c00;fill-opacity:1;stroke:none;stroke-width:30;stroke-miterlimit:4;stroke-dasharray:none;stroke-dashoffset:0;stroke-opacity:1"
       id="path4325"
       cx="300.00003"
       cy="752.362"
       r="240.00003" />
    <path
       style="fill:none;fill-rule:evenodd;stroke:#ffffff;stroke-width:30.00000381;stroke-linecap:butt;stroke-linejoin:round;stroke-miterlimit:0;stroke-dasharray:60.00000715, 30.00000358;stroke-dashoffset:99.00001526;stroke-opacity:1"
       d="m 58.585778,816.56298 c 0,0 77.071072,-212.05888 184.698492,-154.49033 74.95677,40.09343 -30.15521,165.31914 61.67409,215.73298 74.10388,40.68267 127.55636,-114.12994 127.55636,-114.12994"
       id="path5552"
       inkscape:connector-curvature="0"
       sodipodi:nodetypes="cssc" />
    <circle
       style="opacity:1;fill:#ffffff;fill-opacity:1;stroke:none;stroke-width:30;stroke-miterlimit:4;stroke-dasharray:30, 30;stroke-dashoffset:0;stroke-opacity:1"
       id="path5557"
       cx="439.22244"
       cy="752.362"
       r="65.000008" />
  </g>
  <g
     style="display:inline"
     transform="translate(0,-452.36201)"
     id="g6083"
     inkscape:groupmode="layer"
     inkscape:label="Layer 1 copy">
    <ellipse
       ry="284.89935"
       rx="284.89938"
       cy="752.362"
       cx="300.00003"
       id="ellipse6085"
       style="opacity:1;fill:none;fill-opacity:1;stroke:#ff1493;stroke-width:30.20134544;stroke-miterlimit:4;stroke-dasharray:none;stroke-dashoffset:0;stroke-opacity:1" />
    <path
       style="opacity:1;fill:#ff1493;fill-opacity:1;stroke:none;stroke-width:30;stroke-miterlimit:4;stroke-dasharray:none;stroke-dashoffset:0;stroke-opacity:1"
       d="M 300 60 A 239.99997 239.99997 0 0 0 60 300 A 239.99997 239.99997 0 0 0 300 540 A 239.99997 239.99997 0 0 0 540 300 A 239.99997 239.99997 0 0 0 300 60 z M 310.00586 136.91406 L 312.39844 137.06641 L 312.71875 137.0918 L 316.53125 137.42969 L 316.85156 137.46094 L 320.63477 137.89453 L 320.95312 137.93555 L 324.70898 138.46094 L 325.02539 138.50977 L 328.75195 139.12695 L 329.06641 139.18164 L 332.75977 139.89062 L 333.07227 139.95312 L 336.73438 140.75195 L 337.04492 140.82227 L 340.67188 141.70703 L 340.98047 141.78711 L 344.57227 142.75977 L 344.87695 142.8457 L 348.43359 143.9043 L 348.73633 143.99805 L 352.25391 145.14062 L 352.55273 145.24023 L 356.0332 146.4668 L 356.32812 146.57422 L 359.76953 147.88281 L 360.06055 147.99805 L 363.4043 149.36328 L 353.76758 172.95117 L 350.55859 171.63867 L 347.4707 170.46484 L 344.25391 169.33203 L 341.00195 168.27539 L 337.74219 167.30664 L 334.50391 166.42969 L 331.10742 165.60156 L 327.81641 164.88477 L 324.43555 164.23828 L 320.96289 163.66406 L 317.60352 163.19336 L 314.14258 162.79688 L 310.5918 162.48242 L 308.39453 162.34375 L 310.00586 136.91406 z M 282.3125 137.55664 L 285.20508 162.87109 L 282.39844 163.19336 L 279.03711 163.66406 L 275.55078 164.24023 L 272.18359 164.88477 L 268.89258 165.60156 L 265.49609 166.42969 L 262.25781 167.30664 L 258.99805 168.27539 L 255.74609 169.33203 L 252.5293 170.46484 L 249.44336 171.63867 L 246.26758 172.9375 L 243.24805 174.25977 L 240.36328 175.60547 L 229.58398 152.51953 L 232.60938 151.10742 L 232.89258 150.97852 L 236.25 149.50977 L 236.53906 149.38672 L 239.93945 147.99805 L 240.23047 147.88281 L 243.67188 146.57422 L 243.9668 146.4668 L 247.44727 145.24023 L 247.74609 145.14062 L 251.26367 143.99805 L 251.56641 143.9043 L 255.12305 142.8457 L 255.42773 142.75977 L 259.01953 141.78711 L 259.32812 141.70703 L 262.95508 140.82227 L 263.26562 140.75195 L 266.92773 139.95312 L 267.24023 139.89062 L 270.93359 139.18164 L 271.24805 139.12695 L 274.97461 138.50977 L 275.29102 138.46094 L 279.04688 137.93555 L 279.36523 137.89453 L 282.3125 137.55664 z M 387.85156 162.20703 L 387.94922 162.26953 L 388.20898 162.43555 L 391.24023 164.42969 L 391.49219 164.60156 L 394.47266 166.66797 L 394.72266 166.84375 L 397.64844 168.97852 L 397.89258 169.16211 L 400.76562 171.36523 L 401.00586 171.55273 L 403.82422 173.82227 L 404.05859 174.01562 L 406.82031 176.35156 L 407.05078 176.55078 L 409.75586 178.95117 L 409.98047 179.1543 L 412.62695 181.61914 L 412.8457 181.82812 L 415.43164 184.35352 L 415.64648 184.56836 L 418.17188 187.1543 L 418.38281 187.375 L 420.8457 190.01953 L 421.05078 190.24609 L 423.44922 192.94922 L 423.64844 193.17969 L 425.98438 195.94141 L 426.17773 196.17578 L 428.44727 198.99414 L 428.63672 199.23438 L 428.74609 199.37695 L 412.63672 211.72852 L 408.60352 214.97656 L 408.52539 214.88086 L 408.50977 214.85938 L 406.42969 212.27734 L 404.29883 209.75586 L 402.11328 207.29297 L 399.82617 204.83398 L 397.52539 202.48047 L 395.125 200.13672 L 392.75195 197.92773 L 390.28125 195.73438 L 387.7207 193.56836 L 385.16016 191.50586 L 382.48633 189.45703 L 379.83008 187.51953 L 377.11133 185.63477 L 374.19922 183.7168 L 378.55469 177.09961 L 387.85156 162.20703 z M 205.7793 166.49219 L 220.29297 187.42969 L 220.29492 187.43164 L 220.1875 187.50586 L 217.51367 189.45703 L 214.83984 191.50586 L 212.2793 193.56836 L 209.71875 195.73438 L 207.24805 197.92773 L 204.875 200.13672 L 202.47461 202.48047 L 200.17383 204.83398 L 197.88672 207.29297 L 195.70117 209.75586 L 193.57031 212.27734 L 191.46484 214.89062 L 189.49414 217.46094 L 187.42969 220.29297 L 177.25586 212.87109 L 166.66406 205.5293 L 166.66602 205.52734 L 166.84375 205.2793 L 168.97852 202.35156 L 169.16211 202.10742 L 171.36328 199.23438 L 171.55273 198.99414 L 173.82227 196.17578 L 174.01562 195.94141 L 176.35156 193.17969 L 176.55078 192.94922 L 178.94922 190.24609 L 179.1543 190.01953 L 181.61719 187.375 L 181.82812 187.1543 L 184.35352 184.56836 L 184.56836 184.35352 L 187.1543 181.82812 L 187.37305 181.61914 L 190.01953 179.1543 L 190.24414 178.95117 L 192.94922 176.55078 L 193.17969 176.35156 L 195.94141 174.01562 L 196.17578 173.82227 L 198.99414 171.55273 L 199.23438 171.36523 L 202.10742 169.16211 L 202.35156 168.97852 L 205.27734 166.84375 L 205.52734 166.66797 L 205.7793 166.49219 z M 152.64648 229.31055 L 175.73242 240.08984 L 174.24219 243.2832 L 172.91016 246.33008 L 171.65039 249.41406 L 170.43945 252.59766 L 169.30664 255.81641 L 168.28125 258.97266 L 167.30664 262.25781 L 166.43359 265.48242 L 165.61719 268.82227 L 164.88672 272.17383 L 164.23828 275.55664 L 163.67383 278.96094 L 163.19336 282.39844 L 162.90625 284.9043 L 137.5918 282.01172 L 137.89453 279.36523 L 137.93359 279.04688 L 138.45898 275.29102 L 138.50781 274.97461 L 139.125 271.25 L 139.18164 270.93359 L 139.88867 267.24023 L 139.95312 266.92773 L 140.75 263.26562 L 140.82227 262.95508 L 141.70703 259.32812 L 141.78711 259.02148 L 142.75781 255.42773 L 142.8457 255.12305 L 143.90234 251.56641 L 143.99609 251.26562 L 145.13867 247.74609 L 145.24023 247.44727 L 146.4668 243.9668 L 146.57422 243.67188 L 147.88281 240.23047 L 147.99805 239.93945 L 149.38672 236.53906 L 149.50781 236.25195 L 150.97852 232.89258 L 151.10547 232.60938 L 152.64648 229.31055 z M 439.22266 235 A 65 65 0 0 1 504.22266 300 A 65 65 0 0 1 439.22266 365 A 65 65 0 0 1 374.22266 300 A 65 65 0 0 1 439.22266 235 z M 162.32422 308.09375 L 162.48633 310.6582 L 162.79688 314.14062 L 163.19336 317.60352 L 163.67188 321.02734 L 164.23828 324.44727 L 164.88672 327.82812 L 165.62109 331.19531 L 166.42969 334.50195 L 167.30664 337.74414 L 168.28125 341.02734 L 169.31445 344.20703 L 170.43945 347.4043 L 171.65039 350.58594 L 172.83594 353.48828 L 149.24805 363.125 L 147.99805 360.0625 L 147.88281 359.77148 L 146.57422 356.33008 L 146.4668 356.03516 L 145.24023 352.55469 L 145.13867 352.25586 L 143.99609 348.73633 L 143.90234 348.43359 L 142.8457 344.87695 L 142.75781 344.57227 L 141.78711 340.98047 L 141.70703 340.67383 L 140.82227 337.04492 L 140.75 336.73438 L 139.95312 333.07422 L 139.88867 332.76172 L 139.18164 329.06641 L 139.125 328.75195 L 138.50781 325.02734 L 138.45898 324.71094 L 137.93359 320.95508 L 137.89453 320.63672 L 137.46094 316.85156 L 137.42969 316.53125 L 137.08984 312.71875 L 137.06641 312.39844 L 136.89453 309.70508 L 162.32422 308.09375 z M 183.66016 374.10156 L 183.81641 374.35352 L 185.63281 377.11133 L 187.54492 379.86719 L 189.49414 382.53711 L 191.49609 385.15039 L 193.57031 387.72461 L 195.70117 390.24609 L 197.88477 392.70703 L 200.21289 395.20703 L 202.47461 397.52148 L 204.875 399.86523 L 207.24805 402.07422 L 209.71875 404.26758 L 212.23047 406.39258 L 214.88086 408.52734 L 198.89844 428.37109 L 196.17578 426.17773 L 195.94141 425.98438 L 193.17969 423.65039 L 192.94922 423.45117 L 190.24414 421.05078 L 190.01953 420.8457 L 187.37305 418.38281 L 187.1543 418.17383 L 184.56836 415.64844 L 184.35352 415.43359 L 181.82812 412.84766 L 181.61719 412.62695 L 179.1543 409.98047 L 178.94922 409.75586 L 176.55078 407.05078 L 176.35156 406.82227 L 174.01562 404.06055 L 173.82227 403.82422 L 171.55273 401.00586 L 171.36328 400.76758 L 169.16211 397.89453 L 168.97852 397.65039 L 166.84375 394.72266 L 166.66602 394.47266 L 164.60156 391.49414 L 164.42969 391.24023 L 162.43359 388.20898 L 162.26953 387.95117 L 162.04688 387.59375 L 183.66016 374.10156 z M 404.22266 390.33203 L 423.2793 407.24219 L 421.05078 409.75586 L 420.8457 409.98047 L 418.38281 412.62695 L 418.17188 412.84766 L 415.64648 415.43359 L 415.43164 415.64844 L 412.8457 418.17383 L 412.62695 418.38281 L 409.98047 420.8457 L 409.75586 421.05078 L 407.05078 423.45117 L 406.82031 423.65039 L 404.05859 425.98438 L 403.82422 426.17773 L 401.00586 428.44922 L 400.76562 428.63672 L 397.89258 430.83984 L 397.64844 431.02148 L 394.72266 433.15625 L 394.47266 433.33398 L 391.49219 435.40039 L 391.24023 435.57031 L 388.20898 437.56641 L 387.94922 437.73242 L 384.86914 439.65625 L 384.60547 439.81445 L 381.47461 441.66602 L 381.20898 441.82031 L 380.75391 442.07422 L 368.32227 419.83398 L 368.58789 419.68555 L 371.48242 417.97461 L 374.34961 416.18555 L 377.05859 414.40234 L 379.83008 412.48242 L 382.53711 410.50781 L 385.15625 408.49805 L 387.76758 406.39258 L 390.28125 404.26758 L 392.75195 402.07422 L 395.125 399.86523 L 397.52539 397.52148 L 399.78711 395.20703 L 402.11523 392.70703 L 404.22266 390.33203 z M 234.13086 421.20898 L 237.23242 422.84375 L 240.20703 424.32227 L 243.24609 425.74219 L 246.33008 427.08984 L 249.43945 428.36133 L 252.59766 429.56055 L 255.74609 430.66992 L 258.99805 431.72656 L 262.18555 432.67383 L 265.56836 433.58984 L 268.81641 434.38281 L 272.25781 435.13086 L 275.55273 435.76172 L 278.23633 436.20703 L 274.07227 461.34375 L 271.24805 460.875 L 270.93359 460.81836 L 267.24023 460.11133 L 266.92773 460.04688 L 263.26562 459.25 L 262.95508 459.17773 L 259.32812 458.29297 L 259.01953 458.21484 L 255.42773 457.24219 L 255.12305 457.15625 L 251.56641 456.09766 L 251.26367 456.00391 L 247.74609 454.86133 L 247.44727 454.75977 L 243.9668 453.53516 L 243.67188 453.42578 L 240.23047 452.11719 L 239.93945 452.00391 L 236.53906 450.61328 L 236.25 450.49219 L 232.89258 449.02344 L 232.60938 448.89453 L 229.29297 447.34766 L 229.01367 447.21289 L 225.74219 445.58594 L 225.4668 445.44531 L 222.24219 443.74414 L 221.9707 443.5957 L 221.92578 443.57031 L 229.20312 430.55078 L 234.13086 421.20898 z M 347.21094 429.62891 L 355.67578 453.66016 L 352.55273 454.75977 L 352.25391 454.86133 L 348.73633 456.00391 L 348.43359 456.09766 L 344.87695 457.15625 L 344.57227 457.24219 L 340.98047 458.21484 L 340.67188 458.29297 L 337.04492 459.17773 L 336.73438 459.25 L 333.07227 460.04688 L 332.75977 460.11133 L 329.06641 460.81836 L 328.75195 460.875 L 325.02539 461.49219 L 324.70898 461.54102 L 320.95312 462.06641 L 320.63477 462.10742 L 316.85156 462.53906 L 316.53125 462.57227 L 312.71875 462.91016 L 312.39844 462.93555 L 308.55859 463.17773 L 308.23633 463.19531 L 304.37305 463.3418 L 304.05078 463.34961 L 301.69531 463.37891 L 301.37305 437.90234 L 303.55273 437.875 L 307.08008 437.74219 L 310.66602 437.51367 L 314.07031 437.21094 L 317.5293 436.81641 L 321.03906 436.32617 L 324.43555 435.76367 L 327.74219 435.13086 L 331.18359 434.38281 L 334.43164 433.58984 L 337.81445 432.67383 L 341.00195 431.72656 L 344.25391 430.66992 L 347.21094 429.62891 z "
       transform="translate(0,452.36198)"
       id="circle6087" />
  </g>
</svg>
