<?xml version="1.0" encoding="UTF-8" standalone="no"?>
<!-- Created with Inkscape (http://www.inkscape.org/) -->

<svg
   xmlns:dc="http://purl.org/dc/elements/1.1/"
   xmlns:cc="http://creativecommons.org/ns#"
   xmlns:rdf="http://www.w3.org/1999/02/22-rdf-syntax-ns#"
   xmlns:svg="http://www.w3.org/2000/svg"
   xmlns="http://www.w3.org/2000/svg"
   xmlns:sodipodi="http://sodipodi.sourceforge.net/DTD/sodipodi-0.dtd"
   xmlns:inkscape="http://www.inkscape.org/namespaces/inkscape"
   width="600"
   height="600"
   viewBox="0 0 600.00005 600.00002"
   id="svg2"
   version="1.1"
   inkscape:version="0.91 r13725"
   sodipodi:docname="clone.svg">
  <defs
     id="defs4" />
  <sodipodi:namedview
     id="base"
     pagecolor="#ffffff"
     bordercolor="#666666"
     borderopacity="1.0"
     inkscape:pageopacity="0.0"
     inkscape:pageshadow="2"
     inkscape:zoom="0.73860148"
     inkscape:cx="413.82558"
     inkscape:cy="260.85358"
     inkscape:document-units="px"
     inkscape:current-layer="layer1"
     showgrid="false"
     units="px"
     showguides="false"
     inkscape:guide-bbox="true"
     inkscape:window-width="1920"
     inkscape:window-height="1036"
     inkscape:window-x="0"
     inkscape:window-y="0"
     inkscape:window-maximized="1">
    <sodipodi:guide
       position="0,362.00001"
       orientation="1,0"
       id="guide4136" />
    <sodipodi:guide
       position="96.000008,600.00002"
       orientation="0,1"
       id="guide4138" />
    <sodipodi:guide
       position="600.00005,224.00001"
       orientation="1,0"
       id="guide4140" />
    <sodipodi:guide
       position="574.00005,1"
       orientation="0,1"
       id="guide4142" />
    <sodipodi:guide
       position="316.00003,300.00001"
       orientation="0,1"
       id="guide4144" />
    <sodipodi:guide
       position="300.00002,201.00001"
       orientation="1,0"
       id="guide4146" />
  </sodipodi:namedview>
  <metadata
     id="metadata7">
    <rdf:RDF>
      <cc:Work
         rdf:about="">
        <dc:format>image/svg+xml</dc:format>
        <dc:type
           rdf:resource="http://purl.org/dc/dcmitype/StillImage" />
        <dc:title></dc:title>
      </cc:Work>
    </rdf:RDF>
  </metadata>
  <g
     inkscape:label="Layer 1"
     inkscape:groupmode="layer"
     id="layer1"
     transform="translate(0,-452.36201)"
     style="display:inline">
    <ellipse
       style="opacity:1;fill:none;fill-opacity:1;stroke:#ffd700;stroke-width:30.20134544;stroke-miterlimit:4;stroke-dasharray:none;stroke-dashoffset:0;stroke-opacity:1"
       id="path4321"
       cx="300.00003"
       cy="752.362"
       rx="284.89938"
       ry="284.89935" />
    <path
       style="opacity:1;fill:#ffd700;fill-opacity:1;stroke:none;stroke-width:30;stroke-miterlimit:4;stroke-dasharray:none;stroke-dashoffset:0;stroke-opacity:1"
       d="M 300 60 A 239.99997 239.99997 0 0 0 60 300 A 239.99997 239.99997 0 0 0 300 540 A 239.99997 239.99997 0 0 0 540 300 A 239.99997 239.99997 0 0 0 300 60 z M 208.80273 183.2793 A 117.42765 117.42765 0 0 1 279.51758 207.15039 C 259.0569 232.33886 246.76953 264.41609 246.76953 299.29297 C 246.76953 334.94435 259.60822 367.67076 280.89258 393.10352 A 117.42765 117.42765 0 0 1 208.80273 418.13477 A 117.42765 117.42765 0 0 1 91.375 300.70703 A 117.42765 117.42765 0 0 1 208.80273 183.2793 z M 392.79883 183.2793 A 117.42765 117.42765 0 0 1 392.80273 183.2793 A 117.42765 117.42765 0 0 1 501.84961 257.26172 C 502.18614 258.13517 502.51214 259.0129 502.82812 259.89648 A 117.42765 117.42765 0 0 1 504.51367 264.9707 C 507.8347 275.81388 509.625 287.33682 509.625 299.29297 C 509.625 363.77186 457.67616 415.7207 393.19727 415.7207 C 328.71836 415.7207 276.76953 363.77186 276.76953 299.29297 C 276.76953 267.3935 289.49011 238.56699 310.14648 217.57422 A 117.42765 117.42765 0 0 1 392.79883 183.2793 z "
       transform="translate(0,452.36198)"
       id="path4325" />
  </g>
  <g
     inkscape:groupmode="layer"
     id="layer2"
     inkscape:label="Layer 2"
     style="display:inline" />
</svg>
