<?xml version="1.0" encoding="UTF-8" standalone="no"?>
<!-- Created with Inkscape (http://www.inkscape.org/) -->

<svg
   xmlns:dc="http://purl.org/dc/elements/1.1/"
   xmlns:cc="http://creativecommons.org/ns#"
   xmlns:rdf="http://www.w3.org/1999/02/22-rdf-syntax-ns#"
   xmlns:svg="http://www.w3.org/2000/svg"
   xmlns="http://www.w3.org/2000/svg"
   xmlns:sodipodi="http://sodipodi.sourceforge.net/DTD/sodipodi-0.dtd"
   xmlns:inkscape="http://www.inkscape.org/namespaces/inkscape"
   width="600"
   height="600"
   viewBox="0 0 600.00005 600.00002"
   id="svg2"
   version="1.1"
   inkscape:version="0.91 r13725"
   sodipodi:docname="grab.svg">
  <defs
     id="defs4" />
  <sodipodi:namedview
     id="base"
     pagecolor="#ffffff"
     bordercolor="#666666"
     borderopacity="1.0"
     inkscape:pageopacity="0.0"
     inkscape:pageshadow="2"
     inkscape:zoom="0.96423652"
     inkscape:cx="340.9383"
     inkscape:cy="279.08762"
     inkscape:document-units="px"
     inkscape:current-layer="layer1"
     showgrid="false"
     units="px"
     showguides="false"
     inkscape:guide-bbox="true"
     inkscape:window-width="1920"
     inkscape:window-height="1036"
     inkscape:window-x="0"
     inkscape:window-y="0"
     inkscape:window-maximized="1">
    <sodipodi:guide
       position="0,362.00001"
       orientation="1,0"
       id="guide4136" />
    <sodipodi:guide
       position="96.000008,600.00002"
       orientation="0,1"
       id="guide4138" />
    <sodipodi:guide
       position="600.00005,224.00001"
       orientation="1,0"
       id="guide4140" />
    <sodipodi:guide
       position="574.00005,1"
       orientation="0,1"
       id="guide4142" />
    <sodipodi:guide
       position="316.00003,300.00001"
       orientation="0,1"
       id="guide4144" />
    <sodipodi:guide
       position="300.00002,201.00001"
       orientation="1,0"
       id="guide4146" />
  </sodipodi:namedview>
  <metadata
     id="metadata7">
    <rdf:RDF>
      <cc:Work
         rdf:about="">
        <dc:format>image/svg+xml</dc:format>
        <dc:type
           rdf:resource="http://purl.org/dc/dcmitype/StillImage" />
        <dc:title />
      </cc:Work>
    </rdf:RDF>
  </metadata>
  <g
     inkscape:label="Layer 1"
     inkscape:groupmode="layer"
     id="layer1"
     transform="translate(0,-452.36201)">
    <ellipse
       style="opacity:1;fill:none;fill-opacity:1;stroke:#ffd700;stroke-width:30.20134544;stroke-miterlimit:4;stroke-dasharray:none;stroke-dashoffset:0;stroke-opacity:1"
       id="path4321"
       cx="300.00003"
       cy="752.362"
       rx="284.89938"
       ry="284.89935" />
    <path
       style="opacity:1;fill:#ffd700;fill-opacity:1;stroke:none;stroke-width:30;stroke-miterlimit:4;stroke-dasharray:none;stroke-dashoffset:0;stroke-opacity:1"
       d="M 300 60 A 240 240 0 0 0 60 300 A 240 240 0 0 0 300 540 A 240 240 0 0 0 540 300 A 240 240 0 0 0 300 60 z M 292.06641 137.92383 C 310.09266 137.92383 314.21875 153.50195 314.21875 153.50195 L 314.04883 289.81641 L 320.22461 289.81641 L 320.39453 180.40039 C 320.39453 180.40039 325.74349 163.25 343.12695 163.25 C 360.51042 163.25 365.52148 180.58984 365.52148 180.58984 L 365.10742 289.86133 L 371.40039 289.81641 L 371.57031 229.69531 C 371.57031 229.69531 376.43214 213.87695 393.5 213.87695 C 410.56786 213.87695 415.57812 230.05469 415.57812 230.05469 L 416.50781 339.30078 L 397.47461 442.07617 L 232.52734 442.07617 L 146.54297 327.88086 C 146.54297 327.88086 136.40184 309.70777 151.95703 296.05469 C 167.51221 282.40161 185.30469 295.54688 185.30469 295.54688 L 219.14062 340.57031 L 219.60547 177.52344 C 219.60547 177.52344 225.4022 162.98633 242.34961 162.98633 C 259.29701 162.98633 264.16406 180.61133 264.16406 180.61133 L 263.86719 289.71094 L 269.82422 289.41602 L 270.21094 154.3418 C 270.21094 154.3418 274.04016 137.92383 292.06641 137.92383 z "
       transform="translate(0,452.36198)"
       id="path4325" />
  </g>
</svg>
