<?xml version="1.0" encoding="UTF-8" standalone="no"?>
<svg
   xmlns:dc="http://purl.org/dc/elements/1.1/"
   xmlns:cc="http://creativecommons.org/ns#"
   xmlns:rdf="http://www.w3.org/1999/02/22-rdf-syntax-ns#"
   xmlns:svg="http://www.w3.org/2000/svg"
   xmlns="http://www.w3.org/2000/svg"
   xmlns:sodipodi="http://sodipodi.sourceforge.net/DTD/sodipodi-0.dtd"
   xmlns:inkscape="http://www.inkscape.org/namespaces/inkscape"
   version="1.1"
   x="0px"
   y="0px"
   viewBox="0 0 101.96754 101.96754"
   enable-background="new 0 0 100 100"
   xml:space="preserve"
   id="svg2"
   inkscape:version="0.91 r13725"
   sodipodi:docname="midi.svg"
   width="101.96754"
   height="101.96754"
   inkscape:export-filename="/Users/rpalacios/Development/bocas/q-react-canvas/public/icons/menu/midi.png"
   inkscape:export-xdpi="90"
   inkscape:export-ydpi="90"><metadata
     id="metadata284"><rdf:RDF><cc:Work
         rdf:about=""><dc:format>image/svg+xml</dc:format><dc:type
           rdf:resource="http://purl.org/dc/dcmitype/StillImage" /><dc:title></dc:title></cc:Work></rdf:RDF></metadata><defs
     id="defs282" /><sodipodi:namedview
     pagecolor="#ffffff"
     bordercolor="#666666"
     borderopacity="1"
     objecttolerance="10"
     gridtolerance="10"
     guidetolerance="10"
     inkscape:pageopacity="0"
     inkscape:pageshadow="2"
     inkscape:window-width="1440"
     inkscape:window-height="852"
     id="namedview280"
     showgrid="false"
     showguides="true"
     inkscape:guide-bbox="true"
     inkscape:zoom="2"
     inkscape:cx="85.667212"
     inkscape:cy="10.54823"
     inkscape:window-x="0"
     inkscape:window-y="0"
     inkscape:window-maximized="1"
     inkscape:current-layer="g4602"
     fit-margin-top="0"
     fit-margin-left="0"
     fit-margin-right="0"
     fit-margin-bottom="0"><sodipodi:guide
       position="50.91169,75.130098"
       orientation="1,0"
       id="guide4167" /><sodipodi:guide
       position="25.986175,50.91169"
       orientation="0,1"
       id="guide4169" /></sodipodi:namedview><g
     id="g102"
     transform="translate(841.39753,-129.51788)"
     inkscape:export-xdpi="90"
     inkscape:export-ydpi="90"><g
       transform="translate(-290.86106,14.309943)"
       id="g126"><g
         id="g4602"><g
           id="g4606"
           inkscape:export-xdpi="90"
           inkscape:export-ydpi="90"><circle
             transform="translate(290.86106,-14.309943)"
             style="fill:none;fill-opacity:1;stroke:#ff8c00;stroke-width:8;stroke-linecap:round;stroke-linejoin:round;stroke-miterlimit:4;stroke-dasharray:none;stroke-opacity:1"
             id="path4139"
             cx="-790.41376"
             cy="180.50165"
             r="47.983768" /><path
             inkscape:connector-curvature="0"
             id="path130"
             d="m -491.13215,130.96889 0,7.9722 -16.6317,0 0,-7.9722 c -15.88627,3.70217 -27.71141,17.76123 -27.71141,34.5507 0,19.61382 16.12972,35.51352 36.02726,35.51352 19.89754,0 36.02726,-15.8997 36.02726,-35.51352 0,-16.79097 -11.82514,-30.85001 -27.71141,-34.5507 z m -33.28757,37.42571 -0.40219,0.19078 -5.91482,2.79452 -1.56489,-3.2193 5.91483,-2.79452 0.40218,-0.19077 0.0257,-0.43967 c 0.0968,-1.65584 1.08257,-3.12241 2.57488,-3.82589 0.61538,-0.29062 1.27007,-0.43817 1.94592,-0.43817 0.94952,0 1.9066,0.30404 2.69281,0.85699 l 0.36289,0.25485 0.40218,-0.19076 5.91483,-2.79453 1.56488,3.21779 -5.91482,2.79452 -0.40219,0.19078 -0.0257,0.43968 c -0.0968,1.65584 -1.08257,3.1224 -2.57489,3.82588 -0.61538,0.29063 -1.27005,0.43818 -1.9459,0.43818 -0.94952,0 -1.9066,-0.30405 -2.69283,-0.85699 l -0.36287,-0.25337 z m 14.03865,8.90819 c 0.65772,1.52617 0.43243,3.27145 -0.58815,4.55469 -0.86485,1.08652 -2.17422,1.7095 -3.59396,1.7095 -0.25098,0 -0.505,-0.0193 -0.75296,-0.0596 l -0.43999,-0.07 -0.27517,0.34577 -4.04755,5.08827 -2.85006,-2.20134 4.04753,-5.08826 0.27519,-0.34578 -0.17388,-0.40539 c -0.6577,-1.52618 -0.43242,-3.27145 0.58816,-4.5547 0.86485,-1.08651 2.17421,-1.70949 3.59396,-1.70949 0.25098,0 0.50499,0.0193 0.75296,0.0596 l 0.43998,0.0701 0.27518,-0.34577 4.04755,-5.08826 2.85006,2.20282 -4.04754,5.08826 -0.27517,0.34578 0.17386,0.4039 z m 13.1345,12.95316 -0.39009,0.21312 0,0.43968 0,6.4654 -3.62117,0 0,-6.4654 0,-0.43968 -0.39009,-0.21312 c -1.47266,-0.80184 -2.3874,-2.31163 -2.3874,-3.94214 0,-1.6305 0.91474,-3.14029 2.3874,-3.94213 l 0.39009,-0.21314 0,-0.43967 0,-6.4654 3.62117,0 0,6.4654 0,0.43967 0.39009,0.21314 c 1.47266,0.80184 2.3874,2.31163 2.3874,3.94213 0,1.63051 -0.91474,3.1403 -2.3874,3.94214 z m 18.42942,-1.3831 -4.04755,-5.08827 -0.27517,-0.34578 -0.43999,0.0701 c -0.24796,0.0402 -0.50198,0.0596 -0.75296,0.0596 -1.41974,0 -2.72911,-0.62299 -3.59396,-1.7095 -1.02058,-1.28324 -1.24587,-3.02851 -0.58815,-4.5547 l 0.17386,-0.40538 -0.27517,-0.34578 -4.04754,-5.08827 2.85006,-2.20282 4.04755,5.08827 0.27518,0.34577 0.43998,-0.07 c 0.24797,-0.0403 0.50198,-0.0596 0.75296,-0.0596 1.41975,0 2.72911,0.62298 3.59396,1.70949 1.02058,1.28325 1.24586,3.02852 0.58816,4.5547 l -0.17388,0.40539 0.27519,0.34577 4.04753,5.08827 -2.85006,2.20283 z m 4.74306,-20.28747 -0.40219,-0.19078 -0.36287,0.25486 c -0.78623,0.55295 -1.7418,0.85699 -2.69283,0.85699 -0.67585,0 -1.33052,-0.14756 -1.9459,-0.43819 -1.4908,-0.70496 -2.47812,-2.17003 -2.57489,-3.82588 l -0.0257,-0.43967 -0.40219,-0.19077 -5.91482,-2.79452 1.56488,-3.21781 5.91483,2.79452 0.40218,0.19078 0.36289,-0.25486 c 0.78621,-0.55294 1.74178,-0.85699 2.69281,-0.85699 0.67585,0 1.33054,0.14755 1.94592,0.43819 1.4908,0.70496 2.47812,2.17003 2.57488,3.82589 l 0.0257,0.43967 0.40218,0.19076 5.91483,2.79452 -1.56489,3.2193 -5.91482,-2.79601 z"
             style="fill:#ff8c00;fill-opacity:1;stroke:none;stroke-opacity:1"
             inkscape:export-xdpi="90"
             inkscape:export-ydpi="90" /></g></g></g></g><g
     inkscape:groupmode="layer"
     id="layer1"
     inkscape:label="Layer 1" /></svg>