<?xml version="1.0" encoding="UTF-8" standalone="no"?>
<svg
   xmlns:dc="http://purl.org/dc/elements/1.1/"
   xmlns:cc="http://creativecommons.org/ns#"
   xmlns:rdf="http://www.w3.org/1999/02/22-rdf-syntax-ns#"
   xmlns:svg="http://www.w3.org/2000/svg"
   xmlns="http://www.w3.org/2000/svg"
   xmlns:sodipodi="http://sodipodi.sourceforge.net/DTD/sodipodi-0.dtd"
   xmlns:inkscape="http://www.inkscape.org/namespaces/inkscape"
   version="1.1"
   x="0px"
   y="0px"
   viewBox="0 0 101.96754 101.96754"
   enable-background="new 0 0 100 100"
   xml:space="preserve"
   id="svg2"
   inkscape:version="0.91 r13725"
   sodipodi:docname="synth.svg"
   width="101.96754"
   height="101.96754"><metadata
     id="metadata284"><rdf:RDF><cc:Work
         rdf:about=""><dc:format>image/svg+xml</dc:format><dc:type
           rdf:resource="http://purl.org/dc/dcmitype/StillImage" /><dc:title /></cc:Work></rdf:RDF></metadata><defs
     id="defs282" /><sodipodi:namedview
     pagecolor="#ffffff"
     bordercolor="#666666"
     borderopacity="1"
     objecttolerance="10"
     gridtolerance="10"
     guidetolerance="10"
     inkscape:pageopacity="0"
     inkscape:pageshadow="2"
     inkscape:window-width="1444"
     inkscape:window-height="879"
     id="namedview280"
     showgrid="false"
     showguides="true"
     inkscape:guide-bbox="true"
     inkscape:zoom="0.70710678"
     inkscape:cx="395.61764"
     inkscape:cy="-174.25759"
     inkscape:window-x="243"
     inkscape:window-y="1060"
     inkscape:window-maximized="0"
     inkscape:current-layer="layer3"
     fit-margin-top="0"
     fit-margin-left="0"
     fit-margin-right="0"
     fit-margin-bottom="0"><sodipodi:guide
       position="50.91169,75.130098"
       orientation="1,0"
       id="guide4167" /><sodipodi:guide
       position="25.986175,50.91169"
       orientation="0,1"
       id="guide4169" /><sodipodi:guide
       position="41.012195,35.090175"
       orientation="0,1"
       id="guide4160" /><sodipodi:guide
       position="56.750002,90.750003"
       orientation="0,1"
       id="guide4168" /></sodipodi:namedview><g
     inkscape:groupmode="layer"
     id="layer1"
     inkscape:label="Layer 1"
     style="display:inline" /><g
     inkscape:groupmode="layer"
     id="layer2"
     inkscape:label="Layer 2"
     style="display:inline" /><g
     inkscape:groupmode="layer"
     id="layer3"
     inkscape:label="Layer 3"
     style="display:inline;opacity:1"><g
       id="g4176"
       inkscape:export-xdpi="90"
       inkscape:export-ydpi="90"><circle
         r="47.983768"
         cy="180.50165"
         cx="-790.41376"
         id="path4139"
         style="display:inline;fill:none;fill-opacity:1;stroke:#ff8c00;stroke-width:8;stroke-linecap:round;stroke-linejoin:round;stroke-miterlimit:4;stroke-dasharray:none;stroke-opacity:1"
         transform="translate(841.39753,-129.51788)" /><g
         inkscape:export-ydpi="90"
         inkscape:export-xdpi="90"
         transform="translate(841.39753,-129.51788)"
         id="g102"
         style="" /><path
         id="path4170"
         d="M 50.912109 11.216797 A 39.83831 39.83831 0 0 0 11.175781 49.021484 L 16.470703 49.003906 C 16.470703 49.003906 17.330653 61.75 19.220703 61.75 C 21.110753 61.75 22.36184 37.089844 28.466797 37.089844 C 34.571754 37.089844 34.72643 62.396331 37.445312 62.369141 C 40.125282 62.342338 40.017946 36.849609 45.921875 36.849609 C 52.054683 36.849609 52.495976 61.7342 54.863281 61.75 C 57.230587 61.765803 58.27382 36.826172 64.199219 36.826172 C 70.124619 36.826172 71.708074 62.015625 73.177734 62.015625 C 74.647394 62.015625 75.56766 36.826172 81.886719 36.826172 C 86.555215 36.826172 88.080078 49.023438 88.080078 49.023438 L 90.677734 49.023438 A 39.83831 39.83831 0 0 0 50.912109 11.216797 z M 45.884766 41.863281 C 44.036032 41.863281 44.538638 66.939453 37.806641 66.939453 C 31.074646 66.939453 29.772701 42.216797 28.199219 42.216797 C 26.759922 42.216797 27.826599 44.11146 25.193359 56.259766 C 23.772277 62.815853 22.083183 66.714663 19.400391 66.789062 C 14.823489 66.915992 12.845703 53 12.845703 53 L 11.142578 53 A 39.83831 39.83831 0 0 0 50.912109 90.894531 A 39.83831 39.83831 0 0 0 90.662109 52.824219 L 84.580078 52.824219 C 84.580078 52.824219 83.224776 41.951172 81.886719 41.951172 C 80.548662 41.951172 79.847549 66.954729 73.333984 67.005859 C 66.82042 67.056991 66.631892 42.292147 64.019531 42.304688 C 61.407169 42.317231 61.274619 66.798828 54.810547 66.798828 C 48.346475 66.798828 47.7335 41.863281 45.884766 41.863281 z "
         style="fill:#ff8c00;fill-opacity:1;stroke:none;stroke-width:1;stroke-linecap:round;stroke-linejoin:round;stroke-miterlimit:4;stroke-dasharray:none;stroke-opacity:1" /></g></g></svg>