<?xml version="1.0" encoding="UTF-8" standalone="no"?>
<svg
   xmlns:dc="http://purl.org/dc/elements/1.1/"
   xmlns:cc="http://creativecommons.org/ns#"
   xmlns:rdf="http://www.w3.org/1999/02/22-rdf-syntax-ns#"
   xmlns:svg="http://www.w3.org/2000/svg"
   xmlns="http://www.w3.org/2000/svg"
   xmlns:sodipodi="http://sodipodi.sourceforge.net/DTD/sodipodi-0.dtd"
   xmlns:inkscape="http://www.inkscape.org/namespaces/inkscape"
   version="1.1"
   x="0px"
   y="0px"
   viewBox="0 0 101.96754 101.96754"
   enable-background="new 0 0 100 100"
   xml:space="preserve"
   id="svg2"
   inkscape:version="0.91 r13725"
   sodipodi:docname="synth.svg"
   width="101.96754"
   height="101.96754"><metadata
     id="metadata284"><rdf:RDF><cc:Work
         rdf:about=""><dc:format>image/svg+xml</dc:format><dc:type
           rdf:resource="http://purl.org/dc/dcmitype/StillImage" /><dc:title /></cc:Work></rdf:RDF></metadata><defs
     id="defs282" /><sodipodi:namedview
     pagecolor="#ffffff"
     bordercolor="#666666"
     borderopacity="1"
     objecttolerance="10"
     gridtolerance="10"
     guidetolerance="10"
     inkscape:pageopacity="0"
     inkscape:pageshadow="2"
     inkscape:window-width="1440"
     inkscape:window-height="856"
     id="namedview280"
     showgrid="false"
     showguides="true"
     inkscape:guide-bbox="true"
     inkscape:zoom="4"
     inkscape:cx="50.432606"
     inkscape:cy="42.953725"
     inkscape:window-x="94"
     inkscape:window-y="27"
     inkscape:window-maximized="0"
     inkscape:current-layer="g4176"
     fit-margin-top="0"
     fit-margin-left="0"
     fit-margin-right="0"
     fit-margin-bottom="0"><sodipodi:guide
       position="50.91169,75.130098"
       orientation="1,0"
       id="guide4167" /><sodipodi:guide
       position="25.986175,50.91169"
       orientation="0,1"
       id="guide4169" /><sodipodi:guide
       position="41.012195,35.090175"
       orientation="0,1"
       id="guide4160" /><sodipodi:guide
       position="56.750002,90.750003"
       orientation="0,1"
       id="guide4168" /></sodipodi:namedview><g
     inkscape:groupmode="layer"
     id="layer1"
     inkscape:label="Layer 1"
     style="display:inline" /><g
     inkscape:groupmode="layer"
     id="layer2"
     inkscape:label="Layer 2"
     style="display:inline" /><g
     inkscape:groupmode="layer"
     id="layer3"
     inkscape:label="Layer 3"
     style="display:inline;opacity:1"><g
       id="g4176"
       inkscape:export-xdpi="90"
       inkscape:export-ydpi="90"><circle
         r="47.983768"
         cy="180.50165"
         cx="-790.41376"
         id="path4139"
         style="display:inline;fill:none;fill-opacity:1;stroke:#ff8c00;stroke-width:8;stroke-linecap:round;stroke-linejoin:round;stroke-miterlimit:4;stroke-dasharray:none;stroke-opacity:1"
         transform="translate(841.39753,-129.51788)"
         inkscape:export-xdpi="90"
         inkscape:export-ydpi="90" /><g
         inkscape:export-ydpi="90"
         inkscape:export-xdpi="90"
         transform="translate(841.39753,-129.51788)"
         id="g102"
         style="" /><path
         id="path4170"
         d="M 50.911962,14.219038 A 36.836111,36.836111 0 0 0 14.170147,49.174779 l 4.895899,-0.01626 c 0,0 0.795144,11.785554 2.542761,11.785554 1.747617,0 2.904423,-22.801776 8.549312,-22.801776 5.64489,0 5.78791,23.3994 8.301899,23.374259 2.478008,-0.02478 2.378761,-23.59639 7.837772,-23.59639 5.670642,0 6.078679,23.009298 8.267585,23.023907 2.188907,0.01461 3.153523,-23.045578 8.632386,-23.045578 5.478864,0 6.942991,23.291186 8.301897,23.291186 1.358907,0 2.209823,-23.291186 8.05268,-23.291186 4.31668,0 5.72663,11.278084 5.72663,11.278084 l 2.401898,0 A 36.836111,36.836111 0 0 0 50.911962,14.219038 Z m -4.648485,28.336977 c -1.709414,0 -1.244684,23.186443 -7.469361,23.186443 -6.224675,0 -7.428505,-22.859568 -8.88341,-22.859568 -1.330832,0 -0.34454,1.751883 -2.779339,12.984697 -1.313991,6.062023 -2.875795,9.66702 -5.356413,9.735813 -4.231989,0.117364 -6.06073,-12.749925 -6.06073,-12.749925 l -1.574778,0 A 36.836111,36.836111 0 0 0 50.911962,87.89229 36.836111,36.836111 0 0 0 87.666418,52.690942 l -5.623692,0 c 0,0 -1.253167,-10.053659 -2.490388,-10.053659 -1.237222,0 -1.885499,23.119299 -7.908204,23.166576 -6.022705,0.04727 -6.197026,-22.851297 -8.61252,-22.839701 -2.415496,0.0116 -2.538056,22.648272 -8.514999,22.648272 -5.976942,0 -6.543723,-23.056415 -8.253138,-23.056415 z"
         style="fill:#ff8c00;fill-opacity:1;stroke:none;stroke-width:1;stroke-linecap:round;stroke-linejoin:round;stroke-miterlimit:4;stroke-dasharray:none;stroke-opacity:1"
         inkscape:connector-curvature="0"
         inkscape:export-xdpi="90"
         inkscape:export-ydpi="90" /></g></g></svg>